<?xml version="1.0" encoding="UTF-8" standalone="no"?>
<!DOCTYPE svg PUBLIC "-//W3C//DTD SVG 1.1//EN"
 "http://www.w3.org/Graphics/SVG/1.1/DTD/svg11.dtd">
<!-- Generated by graphviz version 11.0.0 (20240428.1522)
 -->
<!-- Title: d Pages: 1 -->
<svg width="721pt" height="672pt"
 viewBox="36.00 36.00 684.81 635.50" xmlns="http://www.w3.org/2000/svg" xmlns:xlink="http://www.w3.org/1999/xlink">
<g id="graph0" class="graph" transform="scale(1 1) rotate(0) translate(40 631.5)">
<title>d</title>
<polygon fill="#343434" stroke="none" points="-4,4 -4,-595.5 644.81,-595.5 644.81,4 -4,4"/>
<text text-anchor="middle" x="320.4" y="-570.4" font-family="Times,serif" font-size="18.00" fill="white">package relation</text>
<!-- clean&#45;architecture/infrastructure/postgres -->
<g id="node1" class="node">
<title>clean&#45;architecture/infrastructure/postgres</title>
<polygon fill="#3288bd" stroke="#e6f598" points="164.81,-205.5 164.81,-254.5 333.06,-254.5 333.06,-205.5 164.81,-205.5"/>
<text text-anchor="middle" x="248.93" y="-237.2" font-family="Times,serif" font-size="14.00" fill="#ffffbf">pkg: postgres</text>
<polyline fill="none" stroke="#e6f598" points="164.81,-230 333.06,-230"/>
<text text-anchor="middle" x="248.93" y="-212.7" font-family="Times,serif" font-size="14.00" fill="#ffffbf">path: infrastructure/postgres</text>
</g>
<!-- clean&#45;architecture/entity -->
<g id="node2" class="node">
<title>clean&#45;architecture/entity</title>
<polygon fill="#3288bd" stroke="#e6f598" points="273.18,-0.5 273.18,-49.5 350.68,-49.5 350.68,-0.5 273.18,-0.5"/>
<text text-anchor="middle" x="311.93" y="-32.2" font-family="Times,serif" font-size="14.00" fill="#ffffbf">pkg: entity</text>
<polyline fill="none" stroke="#e6f598" points="273.18,-25 350.68,-25"/>
<text text-anchor="middle" x="311.93" y="-7.7" font-family="Times,serif" font-size="14.00" fill="#ffffbf">path: entity</text>
</g>
<!-- clean&#45;architecture/infrastructure/postgres&#45;&gt;clean&#45;architecture/entity -->
<g id="edge1" class="edge">
<title>clean&#45;architecture/infrastructure/postgres&#45;&gt;clean&#45;architecture/entity</title>
<path fill="none" stroke="white" d="M252.02,-205.22C255.78,-179.45 263.13,-137.33 274.93,-102.5 279.82,-88.06 286.8,-72.8 293.37,-59.75"/>
<polygon fill="white" stroke="white" points="296.33,-61.65 297.82,-51.16 290.12,-58.43 296.33,-61.65"/>
<text text-anchor="middle" x="289.93" y="-122.45" font-family="Times,serif" font-size="14.00" fill="white">dep:1</text>
<polyline fill="none" stroke="white" points="304.93,-119.25 274.93,-119.25 269,-121.84"/>
</g>
<!-- clean&#45;architecture/repository -->
<g id="node3" class="node">
<title>clean&#45;architecture/repository</title>
<polygon fill="#3288bd" stroke="#e6f598" points="314.18,-103 314.18,-152 415.68,-152 415.68,-103 314.18,-103"/>
<text text-anchor="middle" x="364.93" y="-134.7" font-family="Times,serif" font-size="14.00" fill="#ffffbf">pkg: repository</text>
<polyline fill="none" stroke="#e6f598" points="314.18,-127.5 415.68,-127.5"/>
<text text-anchor="middle" x="364.93" y="-110.2" font-family="Times,serif" font-size="14.00" fill="#ffffbf">path: repository</text>
</g>
<!-- clean&#45;architecture/infrastructure/postgres&#45;&gt;clean&#45;architecture/repository -->
<g id="edge2" class="edge">
<title>clean&#45;architecture/infrastructure/postgres&#45;&gt;clean&#45;architecture/repository</title>
<path fill="none" stroke="white" d="M276.42,-205.18C292.05,-191.64 311.82,-174.51 328.7,-159.88"/>
<polygon fill="white" stroke="white" points="330.83,-162.68 336.09,-153.49 326.24,-157.39 330.83,-162.68"/>
<text text-anchor="middle" x="328.93" y="-173.7" font-family="Times,serif" font-size="14.00" fill="white">dep:1</text>
<polyline fill="none" stroke="white" points="343.93,-170.5 313.93,-170.5 319.36,-167.98"/>
</g>
<!-- clean&#45;architecture/repository&#45;&gt;clean&#45;architecture/entity -->
<g id="edge12" class="edge">
<title>clean&#45;architecture/repository&#45;&gt;clean&#45;architecture/entity</title>
<path fill="none" stroke="white" d="M352.37,-102.68C345.62,-89.88 337.19,-73.89 329.77,-59.82"/>
<polygon fill="white" stroke="white" points="333.05,-58.55 325.29,-51.33 326.86,-61.81 333.05,-58.55"/>
<text text-anchor="middle" x="356.93" y="-71.2" font-family="Times,serif" font-size="14.00" fill="white">dep:1</text>
<polyline fill="none" stroke="white" points="371.93,-68 341.93,-68 342.41,-83.79"/>
</g>
<!-- clean&#45;architecture/postgres -->
<g id="node4" class="node">
<title>clean&#45;architecture/postgres</title>
<polygon fill="#3288bd" stroke="#e6f598" points="549.06,-205.5 549.06,-254.5 640.81,-254.5 640.81,-205.5 549.06,-205.5"/>
<text text-anchor="middle" x="594.93" y="-237.2" font-family="Times,serif" font-size="14.00" fill="#ffffbf">pkg: postgres</text>
<polyline fill="none" stroke="#e6f598" points="549.06,-230 640.81,-230"/>
<text text-anchor="middle" x="594.93" y="-212.7" font-family="Times,serif" font-size="14.00" fill="#ffffbf">path: postgres</text>
</g>
<!-- clean&#45;architecture/postgres&#45;&gt;clean&#45;architecture/entity -->
<g id="edge4" class="edge">
<title>clean&#45;architecture/postgres&#45;&gt;clean&#45;architecture/entity</title>
<path fill="none" stroke="white" d="M563.9,-205.07C521.93,-172.95 444.42,-114.56 375.93,-68 370.16,-64.08 364.07,-60 358.02,-55.99"/>
<polygon fill="white" stroke="white" points="360.16,-53.2 349.88,-50.62 356.3,-59.05 360.16,-53.2"/>
<text text-anchor="middle" x="507.93" y="-122.45" font-family="Times,serif" font-size="14.00" fill="white">dep:1</text>
<polyline fill="none" stroke="white" points="522.93,-119.25 492.93,-119.25 491,-150.18"/>
</g>
<!-- clean&#45;architecture/postgres&#45;&gt;clean&#45;architecture/repository -->
<g id="edge3" class="edge">
<title>clean&#45;architecture/postgres&#45;&gt;clean&#45;architecture/repository</title>
<path fill="none" stroke="white" d="M548.74,-207.8C545.79,-206.77 542.84,-205.83 539.93,-205 485.51,-189.55 463.36,-214.5 413.93,-187 402.96,-180.9 393.4,-171.3 385.71,-161.63"/>
<polygon fill="white" stroke="white" points="388.58,-159.63 379.82,-153.67 382.95,-163.79 388.58,-159.63"/>
<text text-anchor="middle" x="428.93" y="-173.7" font-family="Times,serif" font-size="14.00" fill="white">dep:1</text>
<polyline fill="none" stroke="white" points="443.93,-170.5 413.93,-170.5 413.91,-186.99"/>
</g>
<!-- clean&#45;architecture/usecase -->
<g id="node5" class="node">
<title>clean&#45;architecture/usecase</title>
<polygon fill="#3288bd" stroke="#e6f598" points="357.93,-308 357.93,-357 445.93,-357 445.93,-308 357.93,-308"/>
<text text-anchor="middle" x="401.93" y="-339.7" font-family="Times,serif" font-size="14.00" fill="#ffffbf">pkg: usecase</text>
<polyline fill="none" stroke="#e6f598" points="357.93,-332.5 445.93,-332.5"/>
<text text-anchor="middle" x="401.93" y="-315.2" font-family="Times,serif" font-size="14.00" fill="#ffffbf">path: usecase</text>
</g>
<!-- clean&#45;architecture/usecase&#45;&gt;clean&#45;architecture/entity -->
<g id="edge7" class="edge">
<title>clean&#45;architecture/usecase&#45;&gt;clean&#45;architecture/entity</title>
<path fill="none" stroke="white" d="M357.61,-329.47C265.94,-324.25 60.51,-306.9 17.93,-255 -63.63,-155.58 158.68,-72.5 262.17,-40.32"/>
<polygon fill="white" stroke="white" points="263.01,-43.72 271.54,-37.45 260.96,-37.03 263.01,-43.72"/>
<text text-anchor="middle" x="29.93" y="-173.7" font-family="Times,serif" font-size="14.00" fill="white">dep:1</text>
<polyline fill="none" stroke="white" points="44.93,-170.5 14.93,-170.5 16.81,-168.64"/>
</g>
<!-- clean&#45;architecture/usecase&#45;&gt;clean&#45;architecture/repository -->
<g id="edge5" class="edge">
<title>clean&#45;architecture/usecase&#45;&gt;clean&#45;architecture/repository</title>
<path fill="none" stroke="white" d="M393.1,-307.71C387.9,-292.77 381.64,-273 377.93,-255 371.66,-224.57 368.36,-189.38 366.65,-163.84"/>
<polygon fill="white" stroke="white" points="370.15,-163.78 366.05,-154.01 363.17,-164.21 370.15,-163.78"/>
<text text-anchor="middle" x="392.93" y="-224.95" font-family="Times,serif" font-size="14.00" fill="white">dep:1</text>
<polyline fill="none" stroke="white" points="407.93,-221.75 377.93,-221.75 373.99,-233.01"/>
</g>
<!-- clean&#45;architecture/usecase&#45;&gt;clean&#45;architecture/postgres -->
<g id="edge6" class="edge">
<title>clean&#45;architecture/usecase&#45;&gt;clean&#45;architecture/postgres</title>
<path fill="none" stroke="white" d="M446.21,-308.44C473.68,-294.14 509.24,-275.62 538.7,-260.28"/>
<polygon fill="white" stroke="white" points="540.25,-263.42 547.5,-255.7 537.02,-257.21 540.25,-263.42"/>
<text text-anchor="middle" x="524.93" y="-276.2" font-family="Times,serif" font-size="14.00" fill="white">dep:1</text>
<polyline fill="none" stroke="white" points="539.93,-273 509.93,-273 519.38,-270.34"/>
</g>
<!-- clean&#45;architecture/controller/out -->
<g id="node6" class="node">
<title>clean&#45;architecture/controller/out</title>
<polygon fill="#3288bd" stroke="#e6f598" points="26.81,-205.5 26.81,-254.5 147.06,-254.5 147.06,-205.5 26.81,-205.5"/>
<text text-anchor="middle" x="86.93" y="-237.2" font-family="Times,serif" font-size="14.00" fill="#ffffbf">pkg: out</text>
<polyline fill="none" stroke="#e6f598" points="26.81,-230 147.06,-230"/>
<text text-anchor="middle" x="86.93" y="-212.7" font-family="Times,serif" font-size="14.00" fill="#ffffbf">path: controller/out</text>
</g>
<!-- clean&#45;architecture/usecase&#45;&gt;clean&#45;architecture/controller/out -->
<g id="edge8" class="edge">
<title>clean&#45;architecture/usecase&#45;&gt;clean&#45;architecture/controller/out</title>
<path fill="none" stroke="white" d="M357.8,-318.26C310.67,-304.01 233.56,-280.39 158.11,-255.68"/>
<polygon fill="white" stroke="white" points="159.5,-252.46 148.91,-252.66 157.32,-259.11 159.5,-252.46"/>
<text text-anchor="middle" x="278.93" y="-276.2" font-family="Times,serif" font-size="14.00" fill="white">dep:1</text>
<polyline fill="none" stroke="white" points="293.93,-273 263.93,-273 275.42,-293.02"/>
</g>
<!-- clean&#45;architecture/controller/in -->
<g id="node7" class="node">
<title>clean&#45;architecture/controller/in</title>
<polygon fill="#3288bd" stroke="#e6f598" points="417.18,-205.5 417.18,-254.5 530.68,-254.5 530.68,-205.5 417.18,-205.5"/>
<text text-anchor="middle" x="473.93" y="-237.2" font-family="Times,serif" font-size="14.00" fill="#ffffbf">pkg: in</text>
<polyline fill="none" stroke="#e6f598" points="417.18,-230 530.68,-230"/>
<text text-anchor="middle" x="473.93" y="-212.7" font-family="Times,serif" font-size="14.00" fill="#ffffbf">path: controller/in</text>
</g>
<!-- clean&#45;architecture/usecase&#45;&gt;clean&#45;architecture/controller/in -->
<g id="edge9" class="edge">
<title>clean&#45;architecture/usecase&#45;&gt;clean&#45;architecture/controller/in</title>
<path fill="none" stroke="white" d="M397.21,-307.57C396.23,-296.38 396.95,-283.27 402.93,-273 405.18,-269.14 407.93,-265.6 411.03,-262.35"/>
<polygon fill="white" stroke="white" points="413.12,-265.18 418.24,-255.9 408.45,-259.96 413.12,-265.18"/>
<text text-anchor="middle" x="417.93" y="-276.2" font-family="Times,serif" font-size="14.00" fill="white">dep:2</text>
<polyline fill="none" stroke="white" points="432.93,-273 402.93,-273 403.36,-272.28"/>
</g>
<!-- clean&#45;architecture -->
<g id="node8" class="node">
<title>clean&#45;architecture</title>
<polygon fill="#3288bd" stroke="#e6f598" points="464.18,-513 464.18,-562 535.68,-562 535.68,-513 464.18,-513"/>
<text text-anchor="middle" x="499.93" y="-544.7" font-family="Times,serif" font-size="14.00" fill="#ffffbf">pkg: main</text>
<polyline fill="none" stroke="#e6f598" points="464.18,-537.5 535.68,-537.5"/>
<text text-anchor="middle" x="499.93" y="-520.2" font-family="Times,serif" font-size="14.00" fill="#ffffbf">path: .</text>
</g>
<!-- clean&#45;architecture&#45;&gt;clean&#45;architecture/postgres -->
<g id="edge10" class="edge">
<title>clean&#45;architecture&#45;&gt;clean&#45;architecture/postgres</title>
<path fill="none" stroke="white" d="M523.58,-512.8C536.22,-498.67 550.8,-479.69 558.93,-460 585.71,-395.12 592.71,-312.35 594.45,-266.18"/>
<polygon fill="white" stroke="white" points="597.95,-266.34 594.76,-256.23 590.95,-266.12 597.95,-266.34"/>
<text text-anchor="middle" x="596.93" y="-378.7" font-family="Times,serif" font-size="14.00" fill="white">dep:1</text>
<polyline fill="none" stroke="white" points="611.93,-375.5 581.93,-375.5 581.81,-380.68"/>
</g>
<!-- clean&#45;architecture/controller -->
<g id="node9" class="node">
<title>clean&#45;architecture/controller</title>
<polygon fill="#3288bd" stroke="#e6f598" points="450.31,-410.5 450.31,-459.5 549.56,-459.5 549.56,-410.5 450.31,-410.5"/>
<text text-anchor="middle" x="499.93" y="-442.2" font-family="Times,serif" font-size="14.00" fill="#ffffbf">pkg: controller</text>
<polyline fill="none" stroke="#e6f598" points="450.31,-435 549.56,-435"/>
<text text-anchor="middle" x="499.93" y="-417.7" font-family="Times,serif" font-size="14.00" fill="#ffffbf">path: controller</text>
</g>
<!-- clean&#45;architecture&#45;&gt;clean&#45;architecture/controller -->
<g id="edge11" class="edge">
<title>clean&#45;architecture&#45;&gt;clean&#45;architecture/controller</title>
<path fill="none" stroke="white" d="M499.93,-512.68C499.93,-500.38 499.93,-485.13 499.93,-471.47"/>
<polygon fill="white" stroke="white" points="503.43,-471.51 499.93,-461.51 496.43,-471.51 503.43,-471.51"/>
<text text-anchor="middle" x="514.93" y="-481.2" font-family="Times,serif" font-size="14.00" fill="white">dep:6</text>
<polyline fill="none" stroke="white" points="529.93,-478 499.93,-478 499.93,-486.6"/>
</g>
<!-- clean&#45;architecture/controller&#45;&gt;clean&#45;architecture/usecase -->
<g id="edge14" class="edge">
<title>clean&#45;architecture/controller&#45;&gt;clean&#45;architecture/usecase</title>
<path fill="none" stroke="white" d="M474.54,-410.28C468.37,-404.38 461.85,-398.02 455.93,-392 447.72,-383.65 439.02,-374.41 431.07,-365.8"/>
<polygon fill="white" stroke="white" points="433.77,-363.56 424.43,-358.56 428.61,-368.29 433.77,-363.56"/>
<text text-anchor="middle" x="470.93" y="-378.7" font-family="Times,serif" font-size="14.00" fill="white">dep:2</text>
<polyline fill="none" stroke="white" points="485.93,-375.5 455.93,-375.5 459.32,-395.42"/>
</g>
<!-- clean&#45;architecture/controller&#45;&gt;clean&#45;architecture/controller/in -->
<g id="edge13" class="edge">
<title>clean&#45;architecture/controller&#45;&gt;clean&#45;architecture/controller/in</title>
<path fill="none" stroke="white" d="M499.28,-410.08C498.09,-378.46 494.82,-321.15 485.93,-273 485.5,-270.67 485,-268.28 484.44,-265.89"/>
<polygon fill="white" stroke="white" points="487.85,-265.08 481.96,-256.26 481.07,-266.82 487.85,-265.08"/>
<text text-anchor="middle" x="510.93" y="-327.45" font-family="Times,serif" font-size="14.00" fill="white">dep:2</text>
<polyline fill="none" stroke="white" points="525.93,-324.25 495.93,-324.25 494.28,-334.46"/>
</g>
</g>
</svg>
