<?xml version="1.0" encoding="UTF-8" standalone="no"?>
<!DOCTYPE svg PUBLIC "-//W3C//DTD SVG 1.1//EN"
 "http://www.w3.org/Graphics/SVG/1.1/DTD/svg11.dtd">
<!-- Generated by graphviz version 11.0.0 (20240428.1522)
 -->
<!-- Title: d Pages: 1 -->
<svg width="622pt" height="672pt"
 viewBox="36.00 36.00 585.88 635.50" xmlns="http://www.w3.org/2000/svg" xmlns:xlink="http://www.w3.org/1999/xlink">
<g id="graph0" class="graph" transform="scale(1 1) rotate(0) translate(40 631.5)">
<title>d</title>
<polygon fill="#343434" stroke="none" points="-4,4 -4,-595.5 545.88,-595.5 545.88,4 -4,4"/>
<text text-anchor="middle" x="270.94" y="-570.4" font-family="Times,serif" font-size="18.00" fill="white">package relation</text>
<!-- clean&#45;architecture/infrastructure/postgres -->
<g id="node1" class="node">
<title>clean&#45;architecture/infrastructure/postgres</title>
<polygon fill="#3288bd" stroke="#e6f598" points="0,-205.5 0,-254.5 168.25,-254.5 168.25,-205.5 0,-205.5"/>
<text text-anchor="middle" x="84.12" y="-237.2" font-family="Times,serif" font-size="14.00" fill="#ffffbf">pkg: postgres</text>
<polyline fill="none" stroke="#e6f598" points="0,-230 168.25,-230"/>
<text text-anchor="middle" x="84.12" y="-212.7" font-family="Times,serif" font-size="14.00" fill="#ffffbf">path: infrastructure/postgres</text>
</g>
<!-- clean&#45;architecture/entity -->
<g id="node2" class="node">
<title>clean&#45;architecture/entity</title>
<polygon fill="#3288bd" stroke="#e6f598" points="144.38,-0.5 144.38,-49.5 221.88,-49.5 221.88,-0.5 144.38,-0.5"/>
<text text-anchor="middle" x="183.12" y="-32.2" font-family="Times,serif" font-size="14.00" fill="#ffffbf">pkg: entity</text>
<polyline fill="none" stroke="#e6f598" points="144.38,-25 221.88,-25"/>
<text text-anchor="middle" x="183.12" y="-7.7" font-family="Times,serif" font-size="14.00" fill="#ffffbf">path: entity</text>
</g>
<!-- clean&#45;architecture/infrastructure/postgres&#45;&gt;clean&#45;architecture/entity -->
<g id="edge1" class="edge">
<title>clean&#45;architecture/infrastructure/postgres&#45;&gt;clean&#45;architecture/entity</title>
<path fill="none" stroke="white" d="M80.56,-205.18C77.73,-178.62 76.62,-135.11 93.12,-102.5 102.66,-83.67 119.08,-67.61 135.3,-55.14"/>
<polygon fill="white" stroke="white" points="137.03,-58.22 143.03,-49.48 132.89,-52.57 137.03,-58.22"/>
<text text-anchor="middle" x="108.12" y="-122.45" font-family="Times,serif" font-size="14.00" fill="white">dep:1</text>
<polyline fill="none" stroke="white" points="123.12,-119.25 93.12,-119.25 93.13,-102.49"/>
</g>
<!-- clean&#45;architecture/repository -->
<g id="node3" class="node">
<title>clean&#45;architecture/repository</title>
<polygon fill="#3288bd" stroke="#e6f598" points="132.38,-103 132.38,-152 233.88,-152 233.88,-103 132.38,-103"/>
<text text-anchor="middle" x="183.12" y="-134.7" font-family="Times,serif" font-size="14.00" fill="#ffffbf">pkg: repository</text>
<polyline fill="none" stroke="#e6f598" points="132.38,-127.5 233.88,-127.5"/>
<text text-anchor="middle" x="183.12" y="-110.2" font-family="Times,serif" font-size="14.00" fill="#ffffbf">path: repository</text>
</g>
<!-- clean&#45;architecture/infrastructure/postgres&#45;&gt;clean&#45;architecture/repository -->
<g id="edge2" class="edge">
<title>clean&#45;architecture/infrastructure/postgres&#45;&gt;clean&#45;architecture/repository</title>
<path fill="none" stroke="white" d="M107.59,-205.18C120.68,-191.89 137.18,-175.14 151.41,-160.69"/>
<polygon fill="white" stroke="white" points="153.9,-163.15 158.43,-153.57 148.92,-158.24 153.9,-163.15"/>
<text text-anchor="middle" x="154.12" y="-173.7" font-family="Times,serif" font-size="14.00" fill="white">dep:1</text>
<polyline fill="none" stroke="white" points="169.12,-170.5 139.12,-170.5 143.55,-168.67"/>
</g>
<!-- clean&#45;architecture/repository&#45;&gt;clean&#45;architecture/entity -->
<g id="edge5" class="edge">
<title>clean&#45;architecture/repository&#45;&gt;clean&#45;architecture/entity</title>
<path fill="none" stroke="white" d="M183.12,-102.68C183.12,-90.38 183.12,-75.13 183.12,-61.47"/>
<polygon fill="white" stroke="white" points="186.63,-61.51 183.13,-51.51 179.63,-61.51 186.63,-61.51"/>
<text text-anchor="middle" x="198.12" y="-71.2" font-family="Times,serif" font-size="14.00" fill="white">dep:1</text>
<polyline fill="none" stroke="white" points="213.12,-68 183.12,-68 183.12,-76.6"/>
</g>
<!-- clean&#45;architecture -->
<g id="node4" class="node">
<title>clean&#45;architecture</title>
<polygon fill="#3288bd" stroke="#e6f598" points="314.38,-513 314.38,-562 385.88,-562 385.88,-513 314.38,-513"/>
<text text-anchor="middle" x="350.12" y="-544.7" font-family="Times,serif" font-size="14.00" fill="#ffffbf">pkg: main</text>
<polyline fill="none" stroke="#e6f598" points="314.38,-537.5 385.88,-537.5"/>
<text text-anchor="middle" x="350.12" y="-520.2" font-family="Times,serif" font-size="14.00" fill="#ffffbf">path: .</text>
</g>
<!-- clean&#45;architecture&#45;&gt;clean&#45;architecture/infrastructure/postgres -->
<g id="edge3" class="edge">
<title>clean&#45;architecture&#45;&gt;clean&#45;architecture/infrastructure/postgres</title>
<path fill="none" stroke="white" d="M327.35,-512.58C286.3,-469.18 197.73,-374.09 128.12,-289.5 121.5,-281.44 114.59,-272.54 108.27,-264.16"/>
<polygon fill="white" stroke="white" points="111.12,-262.12 102.34,-256.2 105.51,-266.31 111.12,-262.12"/>
<text text-anchor="middle" x="230.12" y="-378.7" font-family="Times,serif" font-size="14.00" fill="white">dep:1</text>
<polyline fill="none" stroke="white" points="245.12,-375.5 215.12,-375.5 218.32,-394.11"/>
</g>
<!-- clean&#45;architecture/controller -->
<g id="node5" class="node">
<title>clean&#45;architecture/controller</title>
<polygon fill="#3288bd" stroke="#e6f598" points="300.5,-410.5 300.5,-459.5 399.75,-459.5 399.75,-410.5 300.5,-410.5"/>
<text text-anchor="middle" x="350.12" y="-442.2" font-family="Times,serif" font-size="14.00" fill="#ffffbf">pkg: controller</text>
<polyline fill="none" stroke="#e6f598" points="300.5,-435 399.75,-435"/>
<text text-anchor="middle" x="350.12" y="-417.7" font-family="Times,serif" font-size="14.00" fill="#ffffbf">path: controller</text>
</g>
<!-- clean&#45;architecture&#45;&gt;clean&#45;architecture/controller -->
<g id="edge4" class="edge">
<title>clean&#45;architecture&#45;&gt;clean&#45;architecture/controller</title>
<path fill="none" stroke="white" d="M350.12,-512.68C350.12,-500.38 350.12,-485.13 350.12,-471.47"/>
<polygon fill="white" stroke="white" points="353.63,-471.51 350.13,-461.51 346.63,-471.51 353.63,-471.51"/>
<text text-anchor="middle" x="365.12" y="-481.2" font-family="Times,serif" font-size="14.00" fill="white">dep:6</text>
<polyline fill="none" stroke="white" points="380.12,-478 350.12,-478 350.12,-486.6"/>
</g>
<!-- clean&#45;architecture/usecase -->
<g id="node6" class="node">
<title>clean&#45;architecture/usecase</title>
<polygon fill="#3288bd" stroke="#e6f598" points="306.12,-308 306.12,-357 394.12,-357 394.12,-308 306.12,-308"/>
<text text-anchor="middle" x="350.12" y="-339.7" font-family="Times,serif" font-size="14.00" fill="#ffffbf">pkg: usecase</text>
<polyline fill="none" stroke="#e6f598" points="306.12,-332.5 394.12,-332.5"/>
<text text-anchor="middle" x="350.12" y="-315.2" font-family="Times,serif" font-size="14.00" fill="#ffffbf">path: usecase</text>
</g>
<!-- clean&#45;architecture/controller&#45;&gt;clean&#45;architecture/usecase -->
<g id="edge12" class="edge">
<title>clean&#45;architecture/controller&#45;&gt;clean&#45;architecture/usecase</title>
<path fill="none" stroke="white" d="M350.12,-410.18C350.12,-397.88 350.12,-382.63 350.12,-368.97"/>
<polygon fill="white" stroke="white" points="353.63,-369.01 350.13,-359.01 346.63,-369.01 353.63,-369.01"/>
<text text-anchor="middle" x="365.12" y="-378.7" font-family="Times,serif" font-size="14.00" fill="white">dep:2</text>
<polyline fill="none" stroke="white" points="380.12,-375.5 350.12,-375.5 350.12,-384.1"/>
</g>
<!-- clean&#45;architecture/controller/in -->
<g id="node8" class="node">
<title>clean&#45;architecture/controller/in</title>
<polygon fill="#3288bd" stroke="#e6f598" points="428.38,-205.5 428.38,-254.5 541.88,-254.5 541.88,-205.5 428.38,-205.5"/>
<text text-anchor="middle" x="485.12" y="-237.2" font-family="Times,serif" font-size="14.00" fill="#ffffbf">pkg: in</text>
<polyline fill="none" stroke="#e6f598" points="428.38,-230 541.88,-230"/>
<text text-anchor="middle" x="485.12" y="-212.7" font-family="Times,serif" font-size="14.00" fill="#ffffbf">path: controller/in</text>
</g>
<!-- clean&#45;architecture/controller&#45;&gt;clean&#45;architecture/controller/in -->
<g id="edge11" class="edge">
<title>clean&#45;architecture/controller&#45;&gt;clean&#45;architecture/controller/in</title>
<path fill="none" stroke="white" d="M370.95,-410.21C394.45,-382.57 432.82,-334.91 459.12,-289.5 463.54,-281.88 467.71,-273.37 471.37,-265.25"/>
<polygon fill="white" stroke="white" points="474.49,-266.86 475.26,-256.3 468.07,-264.08 474.49,-266.86"/>
<text text-anchor="middle" x="462.12" y="-327.45" font-family="Times,serif" font-size="14.00" fill="white">dep:2</text>
<polyline fill="none" stroke="white" points="477.12,-324.25 447.12,-324.25 441.12,-318.33"/>
</g>
<!-- clean&#45;architecture/usecase&#45;&gt;clean&#45;architecture/infrastructure/postgres -->
<g id="edge7" class="edge">
<title>clean&#45;architecture/usecase&#45;&gt;clean&#45;architecture/infrastructure/postgres</title>
<path fill="none" stroke="white" d="M305.74,-327.24C266.06,-322.17 207.11,-311.44 160.12,-289.5 145.19,-282.53 130.45,-272.2 117.97,-262.16"/>
<polygon fill="white" stroke="white" points="120.41,-259.63 110.49,-255.92 115.93,-265.01 120.41,-259.63"/>
<text text-anchor="middle" x="175.12" y="-276.2" font-family="Times,serif" font-size="14.00" fill="white">dep:1</text>
<polyline fill="none" stroke="white" points="190.12,-273 160.12,-273 160.1,-289.49"/>
</g>
<!-- clean&#45;architecture/usecase&#45;&gt;clean&#45;architecture/entity -->
<g id="edge8" class="edge">
<title>clean&#45;architecture/usecase&#45;&gt;clean&#45;architecture/entity</title>
<path fill="none" stroke="white" d="M323.01,-307.74C308.59,-293.74 291.71,-274.89 281.12,-255 248.31,-193.34 273.19,-165.55 243.12,-102.5 235.63,-86.78 224.43,-71.3 213.72,-58.43"/>
<polygon fill="white" stroke="white" points="216.61,-56.41 207.43,-51.11 211.3,-60.97 216.61,-56.41"/>
<text text-anchor="middle" x="276.12" y="-173.7" font-family="Times,serif" font-size="14.00" fill="white">dep:1</text>
<polyline fill="none" stroke="white" points="291.12,-170.5 261.12,-170.5 261.13,-179.8"/>
</g>
<!-- clean&#45;architecture/usecase&#45;&gt;clean&#45;architecture/repository -->
<g id="edge6" class="edge">
<title>clean&#45;architecture/usecase&#45;&gt;clean&#45;architecture/repository</title>
<path fill="none" stroke="white" d="M305.64,-318.28C286.86,-311.44 265.39,-301.9 248.12,-289.5 231.62,-277.65 227.74,-272.9 218.12,-255 202.61,-226.1 193.47,-189.7 188.45,-163.38"/>
<polygon fill="white" stroke="white" points="191.9,-162.77 186.69,-153.54 185.01,-164.01 191.9,-162.77"/>
<text text-anchor="middle" x="233.12" y="-224.95" font-family="Times,serif" font-size="14.00" fill="white">dep:1</text>
<polyline fill="none" stroke="white" points="248.12,-221.75 218.12,-221.75 210.83,-239.89"/>
</g>
<!-- clean&#45;architecture/controller/out -->
<g id="node7" class="node">
<title>clean&#45;architecture/controller/out</title>
<polygon fill="#3288bd" stroke="#e6f598" points="290,-205.5 290,-254.5 410.25,-254.5 410.25,-205.5 290,-205.5"/>
<text text-anchor="middle" x="350.12" y="-237.2" font-family="Times,serif" font-size="14.00" fill="#ffffbf">pkg: out</text>
<polyline fill="none" stroke="#e6f598" points="290,-230 410.25,-230"/>
<text text-anchor="middle" x="350.12" y="-212.7" font-family="Times,serif" font-size="14.00" fill="#ffffbf">path: controller/out</text>
</g>
<!-- clean&#45;architecture/usecase&#45;&gt;clean&#45;architecture/controller/out -->
<g id="edge9" class="edge">
<title>clean&#45;architecture/usecase&#45;&gt;clean&#45;architecture/controller/out</title>
<path fill="none" stroke="white" d="M350.12,-307.68C350.12,-295.38 350.12,-280.13 350.12,-266.47"/>
<polygon fill="white" stroke="white" points="353.63,-266.51 350.13,-256.51 346.63,-266.51 353.63,-266.51"/>
<text text-anchor="middle" x="365.12" y="-276.2" font-family="Times,serif" font-size="14.00" fill="white">dep:2</text>
<polyline fill="none" stroke="white" points="380.12,-273 350.12,-273 350.12,-281.6"/>
</g>
<!-- clean&#45;architecture/usecase&#45;&gt;clean&#45;architecture/controller/in -->
<g id="edge10" class="edge">
<title>clean&#45;architecture/usecase&#45;&gt;clean&#45;architecture/controller/in</title>
<path fill="none" stroke="white" d="M382.12,-307.68C400.56,-293.95 423.95,-276.54 443.78,-261.78"/>
<polygon fill="white" stroke="white" points="445.75,-264.68 451.68,-255.9 441.57,-259.06 445.75,-264.68"/>
<text text-anchor="middle" x="440.12" y="-276.2" font-family="Times,serif" font-size="14.00" fill="white">dep:2</text>
<polyline fill="none" stroke="white" points="455.12,-273 425.12,-273 431.81,-270.69"/>
</g>
</g>
</svg>
