<?xml version="1.0" encoding="UTF-8" standalone="no"?>
<!DOCTYPE svg PUBLIC "-//W3C//DTD SVG 1.1//EN"
 "http://www.w3.org/Graphics/SVG/1.1/DTD/svg11.dtd">
<!-- Generated by graphviz version 11.0.0 (20240428.1522)
 -->
<!-- Title: d Pages: 1 -->
<svg width="584pt" height="569pt"
 viewBox="36.00 36.00 547.50 533.00" xmlns="http://www.w3.org/2000/svg" xmlns:xlink="http://www.w3.org/1999/xlink">
<g id="graph0" class="graph" transform="scale(1 1) rotate(0) translate(40 529)">
<title>d</title>
<polygon fill="#343434" stroke="none" points="-4,4 -4,-493 507.5,-493 507.5,4 -4,4"/>
<text text-anchor="middle" x="251.75" y="-467.9" font-family="Times,serif" font-size="18.00" fill="white">package relation</text>
<!-- clean&#45;architecture/controller -->
<g id="node1" class="node">
<title>clean&#45;architecture/controller</title>
<polygon fill="#3288bd" stroke="#e6f598" points="292.12,-308 292.12,-357 391.38,-357 391.38,-308 292.12,-308"/>
<text text-anchor="middle" x="341.75" y="-339.7" font-family="Times,serif" font-size="14.00" fill="#ffffbf">pkg: controller</text>
<polyline fill="none" stroke="#e6f598" points="292.12,-332.5 391.38,-332.5"/>
<text text-anchor="middle" x="341.75" y="-315.2" font-family="Times,serif" font-size="14.00" fill="#ffffbf">path: controller</text>
</g>
<!-- clean&#45;architecture/repository -->
<g id="node2" class="node">
<title>clean&#45;architecture/repository</title>
<polygon fill="#3288bd" stroke="#e6f598" points="0,-103 0,-152 101.5,-152 101.5,-103 0,-103"/>
<text text-anchor="middle" x="50.75" y="-134.7" font-family="Times,serif" font-size="14.00" fill="#ffffbf">pkg: repository</text>
<polyline fill="none" stroke="#e6f598" points="0,-127.5 101.5,-127.5"/>
<text text-anchor="middle" x="50.75" y="-110.2" font-family="Times,serif" font-size="14.00" fill="#ffffbf">path: repository</text>
</g>
<!-- clean&#45;architecture/controller&#45;&gt;clean&#45;architecture/repository -->
<g id="edge1" class="edge">
<title>clean&#45;architecture/controller&#45;&gt;clean&#45;architecture/repository</title>
<path fill="none" stroke="white" d="M291.92,-325.98C215.44,-316.36 74.8,-293.77 44.75,-255 24.74,-229.19 29.97,-190.74 37.89,-163.01"/>
<polygon fill="white" stroke="white" points="41.17,-164.26 40.8,-153.67 34.49,-162.17 41.17,-164.26"/>
<text text-anchor="middle" x="59.75" y="-224.95" font-family="Times,serif" font-size="14.00" fill="white">dep:1</text>
<polyline fill="none" stroke="white" points="74.75,-221.75 44.75,-221.75 35.75,-238.6"/>
</g>
<!-- clean&#45;architecture/controller/in -->
<g id="node3" class="node">
<title>clean&#45;architecture/controller/in</title>
<polygon fill="#3288bd" stroke="#e6f598" points="390,-103 390,-152 503.5,-152 503.5,-103 390,-103"/>
<text text-anchor="middle" x="446.75" y="-134.7" font-family="Times,serif" font-size="14.00" fill="#ffffbf">pkg: in</text>
<polyline fill="none" stroke="#e6f598" points="390,-127.5 503.5,-127.5"/>
<text text-anchor="middle" x="446.75" y="-110.2" font-family="Times,serif" font-size="14.00" fill="#ffffbf">path: controller/in</text>
</g>
<!-- clean&#45;architecture/controller&#45;&gt;clean&#45;architecture/controller/in -->
<g id="edge2" class="edge">
<title>clean&#45;architecture/controller&#45;&gt;clean&#45;architecture/controller/in</title>
<path fill="none" stroke="white" d="M362.28,-307.63C366.92,-301.84 371.67,-295.57 375.75,-289.5 402.78,-249.3 423.57,-197.13 435.47,-163.24"/>
<polygon fill="white" stroke="white" points="438.73,-164.52 438.67,-153.92 432.11,-162.24 438.73,-164.52"/>
<text text-anchor="middle" x="432.75" y="-224.95" font-family="Times,serif" font-size="14.00" fill="white">dep:2</text>
<polyline fill="none" stroke="white" points="447.75,-221.75 417.75,-221.75 412.69,-220.87"/>
</g>
<!-- clean&#45;architecture/usecase -->
<g id="node4" class="node">
<title>clean&#45;architecture/usecase</title>
<polygon fill="#3288bd" stroke="#e6f598" points="297.75,-205.5 297.75,-254.5 385.75,-254.5 385.75,-205.5 297.75,-205.5"/>
<text text-anchor="middle" x="341.75" y="-237.2" font-family="Times,serif" font-size="14.00" fill="#ffffbf">pkg: usecase</text>
<polyline fill="none" stroke="#e6f598" points="297.75,-230 385.75,-230"/>
<text text-anchor="middle" x="341.75" y="-212.7" font-family="Times,serif" font-size="14.00" fill="#ffffbf">path: usecase</text>
</g>
<!-- clean&#45;architecture/controller&#45;&gt;clean&#45;architecture/usecase -->
<g id="edge3" class="edge">
<title>clean&#45;architecture/controller&#45;&gt;clean&#45;architecture/usecase</title>
<path fill="none" stroke="white" d="M341.75,-307.68C341.75,-295.38 341.75,-280.13 341.75,-266.47"/>
<polygon fill="white" stroke="white" points="345.25,-266.51 341.75,-256.51 338.25,-266.51 345.25,-266.51"/>
<text text-anchor="middle" x="356.75" y="-276.2" font-family="Times,serif" font-size="14.00" fill="white">dep:2</text>
<polyline fill="none" stroke="white" points="371.75,-273 341.75,-273 341.75,-281.6"/>
</g>
<!-- clean&#45;architecture/entity -->
<g id="node7" class="node">
<title>clean&#45;architecture/entity</title>
<polygon fill="#3288bd" stroke="#e6f598" points="99,-0.5 99,-49.5 176.5,-49.5 176.5,-0.5 99,-0.5"/>
<text text-anchor="middle" x="137.75" y="-32.2" font-family="Times,serif" font-size="14.00" fill="#ffffbf">pkg: entity</text>
<polyline fill="none" stroke="#e6f598" points="99,-25 176.5,-25"/>
<text text-anchor="middle" x="137.75" y="-7.7" font-family="Times,serif" font-size="14.00" fill="#ffffbf">path: entity</text>
</g>
<!-- clean&#45;architecture/repository&#45;&gt;clean&#45;architecture/entity -->
<g id="edge7" class="edge">
<title>clean&#45;architecture/repository&#45;&gt;clean&#45;architecture/entity</title>
<path fill="none" stroke="white" d="M66.8,-102.72C74.53,-91.8 84.18,-78.89 93.75,-68 96.81,-64.52 100.11,-61 103.49,-57.55"/>
<polygon fill="white" stroke="white" points="105.69,-60.3 110.33,-50.77 100.76,-55.33 105.69,-60.3"/>
<text text-anchor="middle" x="108.75" y="-71.2" font-family="Times,serif" font-size="14.00" fill="white">dep:1</text>
<polyline fill="none" stroke="white" points="123.75,-68 93.75,-68 96.39,-65.06"/>
</g>
<!-- clean&#45;architecture/usecase&#45;&gt;clean&#45;architecture/repository -->
<g id="edge8" class="edge">
<title>clean&#45;architecture/usecase&#45;&gt;clean&#45;architecture/repository</title>
<path fill="none" stroke="white" d="M297.46,-214.4C251.8,-199.27 178.62,-174.74 115.75,-152.5 114.62,-152.1 113.47,-151.69 112.32,-151.28"/>
<polygon fill="white" stroke="white" points="113.82,-148.1 103.22,-148.01 111.45,-154.69 113.82,-148.1"/>
<text text-anchor="middle" x="229.75" y="-173.7" font-family="Times,serif" font-size="14.00" fill="white">dep:2</text>
<polyline fill="none" stroke="white" points="244.75,-170.5 214.75,-170.5 225.63,-190.37"/>
</g>
<!-- clean&#45;architecture/usecase&#45;&gt;clean&#45;architecture/controller/in -->
<g id="edge11" class="edge">
<title>clean&#45;architecture/usecase&#45;&gt;clean&#45;architecture/controller/in</title>
<path fill="none" stroke="white" d="M359.2,-205.06C367.81,-193.99 378.7,-180.99 389.75,-170.5 393.82,-166.63 398.26,-162.81 402.8,-159.13"/>
<polygon fill="white" stroke="white" points="404.66,-162.12 410.39,-153.21 400.36,-156.6 404.66,-162.12"/>
<text text-anchor="middle" x="404.75" y="-173.7" font-family="Times,serif" font-size="14.00" fill="white">dep:2</text>
<polyline fill="none" stroke="white" points="419.75,-170.5 389.75,-170.5 394.07,-166.53"/>
</g>
<!-- clean&#45;architecture/usecase&#45;&gt;clean&#45;architecture/entity -->
<g id="edge9" class="edge">
<title>clean&#45;architecture/usecase&#45;&gt;clean&#45;architecture/entity</title>
<path fill="none" stroke="white" d="M342.85,-205.27C342.87,-177.58 338.81,-131.85 314.75,-102.5 283.1,-63.89 228.26,-44.3 187.99,-34.68"/>
<polygon fill="white" stroke="white" points="188.79,-31.27 178.26,-32.5 187.26,-38.1 188.79,-31.27"/>
<text text-anchor="middle" x="352.75" y="-122.45" font-family="Times,serif" font-size="14.00" fill="white">dep:1</text>
<polyline fill="none" stroke="white" points="367.75,-119.25 337.75,-119.25 332.24,-134.62"/>
</g>
<!-- clean&#45;architecture/controller/out -->
<g id="node8" class="node">
<title>clean&#45;architecture/controller/out</title>
<polygon fill="#3288bd" stroke="#e6f598" points="185.62,-103 185.62,-152 305.88,-152 305.88,-103 185.62,-103"/>
<text text-anchor="middle" x="245.75" y="-134.7" font-family="Times,serif" font-size="14.00" fill="#ffffbf">pkg: out</text>
<polyline fill="none" stroke="#e6f598" points="185.62,-127.5 305.88,-127.5"/>
<text text-anchor="middle" x="245.75" y="-110.2" font-family="Times,serif" font-size="14.00" fill="#ffffbf">path: controller/out</text>
</g>
<!-- clean&#45;architecture/usecase&#45;&gt;clean&#45;architecture/controller/out -->
<g id="edge10" class="edge">
<title>clean&#45;architecture/usecase&#45;&gt;clean&#45;architecture/controller/out</title>
<path fill="none" stroke="white" d="M316.27,-205.36C310.11,-199.46 303.62,-193.08 297.75,-187 289.68,-178.64 281.2,-169.34 273.49,-160.66"/>
<polygon fill="white" stroke="white" points="276.31,-158.56 267.07,-153.38 271.06,-163.19 276.31,-158.56"/>
<text text-anchor="middle" x="312.75" y="-173.7" font-family="Times,serif" font-size="14.00" fill="white">dep:1</text>
<polyline fill="none" stroke="white" points="327.75,-170.5 297.75,-170.5 300.83,-190.16"/>
</g>
<!-- clean&#45;architecture -->
<g id="node5" class="node">
<title>clean&#45;architecture</title>
<polygon fill="#3288bd" stroke="#e6f598" points="306,-410.5 306,-459.5 377.5,-459.5 377.5,-410.5 306,-410.5"/>
<text text-anchor="middle" x="341.75" y="-442.2" font-family="Times,serif" font-size="14.00" fill="#ffffbf">pkg: main</text>
<polyline fill="none" stroke="#e6f598" points="306,-435 377.5,-435"/>
<text text-anchor="middle" x="341.75" y="-417.7" font-family="Times,serif" font-size="14.00" fill="#ffffbf">path: .</text>
</g>
<!-- clean&#45;architecture&#45;&gt;clean&#45;architecture/controller -->
<g id="edge4" class="edge">
<title>clean&#45;architecture&#45;&gt;clean&#45;architecture/controller</title>
<path fill="none" stroke="white" d="M341.75,-410.18C341.75,-397.88 341.75,-382.63 341.75,-368.97"/>
<polygon fill="white" stroke="white" points="345.25,-369.01 341.75,-359.01 338.25,-369.01 345.25,-369.01"/>
<text text-anchor="middle" x="356.75" y="-378.7" font-family="Times,serif" font-size="14.00" fill="white">dep:6</text>
<polyline fill="none" stroke="white" points="371.75,-375.5 341.75,-375.5 341.75,-384.1"/>
</g>
<!-- clean&#45;architecture/repository/mysql -->
<g id="node6" class="node">
<title>clean&#45;architecture/repository/mysql</title>
<polygon fill="#3288bd" stroke="#e6f598" points="84.25,-205.5 84.25,-254.5 223.25,-254.5 223.25,-205.5 84.25,-205.5"/>
<text text-anchor="middle" x="153.75" y="-237.2" font-family="Times,serif" font-size="14.00" fill="#ffffbf">pkg: mysql</text>
<polyline fill="none" stroke="#e6f598" points="84.25,-230 223.25,-230"/>
<text text-anchor="middle" x="153.75" y="-212.7" font-family="Times,serif" font-size="14.00" fill="#ffffbf">path: repository/mysql</text>
</g>
<!-- clean&#45;architecture/repository/mysql&#45;&gt;clean&#45;architecture/repository -->
<g id="edge5" class="edge">
<title>clean&#45;architecture/repository/mysql&#45;&gt;clean&#45;architecture/repository</title>
<path fill="none" stroke="white" d="M115.47,-205.01C107.91,-199.52 100.3,-193.4 93.75,-187 86,-179.43 78.61,-170.35 72.21,-161.63"/>
<polygon fill="white" stroke="white" points="75.19,-159.78 66.56,-153.63 69.47,-163.82 75.19,-159.78"/>
<text text-anchor="middle" x="108.75" y="-173.7" font-family="Times,serif" font-size="14.00" fill="white">dep:1</text>
<polyline fill="none" stroke="white" points="123.75,-170.5 93.75,-170.5 97.86,-190.86"/>
</g>
<!-- clean&#45;architecture/repository/mysql&#45;&gt;clean&#45;architecture/entity -->
<g id="edge6" class="edge">
<title>clean&#45;architecture/repository/mysql&#45;&gt;clean&#45;architecture/entity</title>
<path fill="none" stroke="white" d="M151.45,-205.23C150.02,-190.14 148.19,-170.18 146.75,-152.5 144.24,-121.62 141.77,-86.47 140.05,-61.07"/>
<polygon fill="white" stroke="white" points="143.56,-61.05 139.4,-51.3 136.58,-61.51 143.56,-61.05"/>
<text text-anchor="middle" x="161.75" y="-122.45" font-family="Times,serif" font-size="14.00" fill="white">dep:1</text>
<polyline fill="none" stroke="white" points="176.75,-119.25 146.75,-119.25 144.91,-129.13"/>
</g>
</g>
</svg>
