<?xml version="1.0" encoding="UTF-8" standalone="no"?>
<!DOCTYPE svg PUBLIC "-//W3C//DTD SVG 1.1//EN"
 "http://www.w3.org/Graphics/SVG/1.1/DTD/svg11.dtd">
<!-- Generated by graphviz version 11.0.0 (20240428.1522)
 -->
<!-- Title: d Pages: 1 -->
<svg width="604pt" height="672pt"
 viewBox="36.00 36.00 567.75 635.50" xmlns="http://www.w3.org/2000/svg" xmlns:xlink="http://www.w3.org/1999/xlink">
<g id="graph0" class="graph" transform="scale(1 1) rotate(0) translate(40 631.5)">
<title>d</title>
<polygon fill="#343434" stroke="none" points="-4,4 -4,-595.5 527.75,-595.5 527.75,4 -4,4"/>
<text text-anchor="middle" x="261.88" y="-570.4" font-family="Times,serif" font-size="18.00" fill="white">package relation</text>
<!-- clean&#45;architecture/repository -->
<g id="node1" class="node">
<title>clean&#45;architecture/repository</title>
<polygon fill="#3288bd" stroke="#e6f598" points="390,-103 390,-152 491.5,-152 491.5,-103 390,-103"/>
<text text-anchor="middle" x="440.75" y="-134.7" font-family="Times,serif" font-size="14.00" fill="#ffffbf">pkg: repository</text>
<polyline fill="none" stroke="#e6f598" points="390,-127.5 491.5,-127.5"/>
<text text-anchor="middle" x="440.75" y="-110.2" font-family="Times,serif" font-size="14.00" fill="#ffffbf">path: repository</text>
</g>
<!-- clean&#45;architecture/entity -->
<g id="node2" class="node">
<title>clean&#45;architecture/entity</title>
<polygon fill="#3288bd" stroke="#e6f598" points="303,-0.5 303,-49.5 380.5,-49.5 380.5,-0.5 303,-0.5"/>
<text text-anchor="middle" x="341.75" y="-32.2" font-family="Times,serif" font-size="14.00" fill="#ffffbf">pkg: entity</text>
<polyline fill="none" stroke="#e6f598" points="303,-25 380.5,-25"/>
<text text-anchor="middle" x="341.75" y="-7.7" font-family="Times,serif" font-size="14.00" fill="#ffffbf">path: entity</text>
</g>
<!-- clean&#45;architecture/repository&#45;&gt;clean&#45;architecture/entity -->
<g id="edge1" class="edge">
<title>clean&#45;architecture/repository&#45;&gt;clean&#45;architecture/entity</title>
<path fill="none" stroke="white" d="M417.29,-102.68C404.19,-89.39 387.7,-72.64 373.46,-58.19"/>
<polygon fill="white" stroke="white" points="375.96,-55.74 366.45,-51.07 370.97,-60.65 375.96,-55.74"/>
<text text-anchor="middle" x="411.75" y="-71.2" font-family="Times,serif" font-size="14.00" fill="white">dep:1</text>
<polyline fill="none" stroke="white" points="426.75,-68 396.75,-68 401.42,-86.57"/>
</g>
<!-- clean&#45;architecture/usecase -->
<g id="node3" class="node">
<title>clean&#45;architecture/usecase</title>
<polygon fill="#3288bd" stroke="#e6f598" points="147.75,-308 147.75,-357 235.75,-357 235.75,-308 147.75,-308"/>
<text text-anchor="middle" x="191.75" y="-339.7" font-family="Times,serif" font-size="14.00" fill="#ffffbf">pkg: usecase</text>
<polyline fill="none" stroke="#e6f598" points="147.75,-332.5 235.75,-332.5"/>
<text text-anchor="middle" x="191.75" y="-315.2" font-family="Times,serif" font-size="14.00" fill="#ffffbf">path: usecase</text>
</g>
<!-- clean&#45;architecture/usecase&#45;&gt;clean&#45;architecture/repository -->
<g id="edge5" class="edge">
<title>clean&#45;architecture/usecase&#45;&gt;clean&#45;architecture/repository</title>
<path fill="none" stroke="white" d="M236.14,-326.52C310.4,-317.17 454.69,-294.31 484.75,-255 505.97,-227.24 487.12,-188.48 467.92,-161.2"/>
<polygon fill="white" stroke="white" points="470.84,-159.25 462.08,-153.28 465.2,-163.41 470.84,-159.25"/>
<text text-anchor="middle" x="508.75" y="-224.95" font-family="Times,serif" font-size="14.00" fill="white">dep:1</text>
<polyline fill="none" stroke="white" points="523.75,-221.75 493.75,-221.75 494.05,-229.09"/>
</g>
<!-- clean&#45;architecture/usecase&#45;&gt;clean&#45;architecture/entity -->
<g id="edge2" class="edge">
<title>clean&#45;architecture/usecase&#45;&gt;clean&#45;architecture/entity</title>
<path fill="none" stroke="white" d="M217.8,-307.67C232.06,-293.5 249.13,-274.52 260.75,-255 298.63,-191.36 322.66,-107.27 334.01,-60.73"/>
<polygon fill="white" stroke="white" points="337.37,-61.76 336.28,-51.22 330.56,-60.14 337.37,-61.76"/>
<text text-anchor="middle" x="314.75" y="-173.7" font-family="Times,serif" font-size="14.00" fill="white">dep:1</text>
<polyline fill="none" stroke="white" points="329.75,-170.5 299.75,-170.5 299.51,-172.86"/>
</g>
<!-- clean&#45;architecture/controller/out -->
<g id="node4" class="node">
<title>clean&#45;architecture/controller/out</title>
<polygon fill="#3288bd" stroke="#e6f598" points="131.62,-205.5 131.62,-254.5 251.88,-254.5 251.88,-205.5 131.62,-205.5"/>
<text text-anchor="middle" x="191.75" y="-237.2" font-family="Times,serif" font-size="14.00" fill="#ffffbf">pkg: out</text>
<polyline fill="none" stroke="#e6f598" points="131.62,-230 251.88,-230"/>
<text text-anchor="middle" x="191.75" y="-212.7" font-family="Times,serif" font-size="14.00" fill="#ffffbf">path: controller/out</text>
</g>
<!-- clean&#45;architecture/usecase&#45;&gt;clean&#45;architecture/controller/out -->
<g id="edge3" class="edge">
<title>clean&#45;architecture/usecase&#45;&gt;clean&#45;architecture/controller/out</title>
<path fill="none" stroke="white" d="M191.75,-307.68C191.75,-295.38 191.75,-280.13 191.75,-266.47"/>
<polygon fill="white" stroke="white" points="195.25,-266.51 191.75,-256.51 188.25,-266.51 195.25,-266.51"/>
<text text-anchor="middle" x="206.75" y="-276.2" font-family="Times,serif" font-size="14.00" fill="white">dep:1</text>
<polyline fill="none" stroke="white" points="221.75,-273 191.75,-273 191.75,-281.6"/>
</g>
<!-- clean&#45;architecture/controller/in -->
<g id="node5" class="node">
<title>clean&#45;architecture/controller/in</title>
<polygon fill="#3288bd" stroke="#e6f598" points="0,-205.5 0,-254.5 113.5,-254.5 113.5,-205.5 0,-205.5"/>
<text text-anchor="middle" x="56.75" y="-237.2" font-family="Times,serif" font-size="14.00" fill="#ffffbf">pkg: in</text>
<polyline fill="none" stroke="#e6f598" points="0,-230 113.5,-230"/>
<text text-anchor="middle" x="56.75" y="-212.7" font-family="Times,serif" font-size="14.00" fill="#ffffbf">path: controller/in</text>
</g>
<!-- clean&#45;architecture/usecase&#45;&gt;clean&#45;architecture/controller/in -->
<g id="edge4" class="edge">
<title>clean&#45;architecture/usecase&#45;&gt;clean&#45;architecture/controller/in</title>
<path fill="none" stroke="white" d="M159.76,-307.68C141.31,-293.95 117.93,-276.54 98.1,-261.78"/>
<polygon fill="white" stroke="white" points="100.31,-259.06 90.2,-255.9 96.13,-264.68 100.31,-259.06"/>
<text text-anchor="middle" x="147.75" y="-276.2" font-family="Times,serif" font-size="14.00" fill="white">dep:2</text>
<polyline fill="none" stroke="white" points="162.75,-273 132.75,-273 139.33,-292.48"/>
</g>
<!-- clean&#45;architecture/infrastructure/postgres -->
<g id="node6" class="node">
<title>clean&#45;architecture/infrastructure/postgres</title>
<polygon fill="#3288bd" stroke="#e6f598" points="307.62,-205.5 307.62,-254.5 475.88,-254.5 475.88,-205.5 307.62,-205.5"/>
<text text-anchor="middle" x="391.75" y="-237.2" font-family="Times,serif" font-size="14.00" fill="#ffffbf">pkg: postgres</text>
<polyline fill="none" stroke="#e6f598" points="307.62,-230 475.88,-230"/>
<text text-anchor="middle" x="391.75" y="-212.7" font-family="Times,serif" font-size="14.00" fill="#ffffbf">path: infrastructure/postgres</text>
</g>
<!-- clean&#45;architecture/usecase&#45;&gt;clean&#45;architecture/infrastructure/postgres -->
<g id="edge6" class="edge">
<title>clean&#45;architecture/usecase&#45;&gt;clean&#45;architecture/infrastructure/postgres</title>
<path fill="none" stroke="white" d="M236.06,-314.91C254.21,-307.69 275.26,-298.76 293.75,-289.5 310.92,-280.9 329.13,-270.43 345.13,-260.74"/>
<polygon fill="white" stroke="white" points="346.79,-263.83 353.49,-255.62 343.14,-257.86 346.79,-263.83"/>
<text text-anchor="middle" x="338.75" y="-276.2" font-family="Times,serif" font-size="14.00" fill="white">dep:1</text>
<polyline fill="none" stroke="white" points="353.75,-273 323.75,-273 331.57,-268.81"/>
</g>
<!-- clean&#45;architecture/infrastructure/postgres&#45;&gt;clean&#45;architecture/repository -->
<g id="edge9" class="edge">
<title>clean&#45;architecture/infrastructure/postgres&#45;&gt;clean&#45;architecture/repository</title>
<path fill="none" stroke="white" d="M403.36,-205.18C409.54,-192.51 417.25,-176.7 424.06,-162.73"/>
<polygon fill="white" stroke="white" points="427.15,-164.38 428.39,-153.85 420.86,-161.31 427.15,-164.38"/>
<text text-anchor="middle" x="433.75" y="-173.7" font-family="Times,serif" font-size="14.00" fill="white">dep:1</text>
<polyline fill="none" stroke="white" points="448.75,-170.5 418.75,-170.5 419.65,-171.77"/>
</g>
<!-- clean&#45;architecture/infrastructure/postgres&#45;&gt;clean&#45;architecture/entity -->
<g id="edge10" class="edge">
<title>clean&#45;architecture/infrastructure/postgres&#45;&gt;clean&#45;architecture/entity</title>
<path fill="none" stroke="white" d="M375.69,-205.32C366.68,-190.75 356.19,-171.32 350.75,-152.5 342.09,-122.56 340.26,-87.04 340.35,-61.28"/>
<polygon fill="white" stroke="white" points="343.85,-61.39 340.49,-51.34 336.85,-61.29 343.85,-61.39"/>
<text text-anchor="middle" x="365.75" y="-122.45" font-family="Times,serif" font-size="14.00" fill="white">dep:1</text>
<polyline fill="none" stroke="white" points="380.75,-119.25 350.75,-119.25 345.86,-131.47"/>
</g>
<!-- clean&#45;architecture/controller -->
<g id="node7" class="node">
<title>clean&#45;architecture/controller</title>
<polygon fill="#3288bd" stroke="#e6f598" points="142.12,-410.5 142.12,-459.5 241.38,-459.5 241.38,-410.5 142.12,-410.5"/>
<text text-anchor="middle" x="191.75" y="-442.2" font-family="Times,serif" font-size="14.00" fill="#ffffbf">pkg: controller</text>
<polyline fill="none" stroke="#e6f598" points="142.12,-435 241.38,-435"/>
<text text-anchor="middle" x="191.75" y="-417.7" font-family="Times,serif" font-size="14.00" fill="#ffffbf">path: controller</text>
</g>
<!-- clean&#45;architecture/controller&#45;&gt;clean&#45;architecture/usecase -->
<g id="edge8" class="edge">
<title>clean&#45;architecture/controller&#45;&gt;clean&#45;architecture/usecase</title>
<path fill="none" stroke="white" d="M191.75,-410.18C191.75,-397.88 191.75,-382.63 191.75,-368.97"/>
<polygon fill="white" stroke="white" points="195.25,-369.01 191.75,-359.01 188.25,-369.01 195.25,-369.01"/>
<text text-anchor="middle" x="206.75" y="-378.7" font-family="Times,serif" font-size="14.00" fill="white">dep:2</text>
<polyline fill="none" stroke="white" points="221.75,-375.5 191.75,-375.5 191.75,-384.1"/>
</g>
<!-- clean&#45;architecture/controller&#45;&gt;clean&#45;architecture/controller/in -->
<g id="edge7" class="edge">
<title>clean&#45;architecture/controller&#45;&gt;clean&#45;architecture/controller/in</title>
<path fill="none" stroke="white" d="M159.78,-410.2C142.86,-396.32 122.74,-377.61 108.75,-357.5 89.05,-329.19 74.96,-292.28 66.46,-265.65"/>
<polygon fill="white" stroke="white" points="69.89,-264.89 63.61,-256.36 63.2,-266.95 69.89,-264.89"/>
<text text-anchor="middle" x="123.75" y="-327.45" font-family="Times,serif" font-size="14.00" fill="white">dep:2</text>
<polyline fill="none" stroke="white" points="138.75,-324.25 108.75,-324.25 101.2,-345.81"/>
</g>
<!-- clean&#45;architecture -->
<g id="node8" class="node">
<title>clean&#45;architecture</title>
<polygon fill="#3288bd" stroke="#e6f598" points="156,-513 156,-562 227.5,-562 227.5,-513 156,-513"/>
<text text-anchor="middle" x="191.75" y="-544.7" font-family="Times,serif" font-size="14.00" fill="#ffffbf">pkg: main</text>
<polyline fill="none" stroke="#e6f598" points="156,-537.5 227.5,-537.5"/>
<text text-anchor="middle" x="191.75" y="-520.2" font-family="Times,serif" font-size="14.00" fill="#ffffbf">path: .</text>
</g>
<!-- clean&#45;architecture&#45;&gt;clean&#45;architecture/infrastructure/postgres -->
<g id="edge12" class="edge">
<title>clean&#45;architecture&#45;&gt;clean&#45;architecture/infrastructure/postgres</title>
<path fill="none" stroke="white" d="M211.39,-512.69C216.15,-506.79 221.19,-500.46 225.75,-494.5 291.66,-408.48 301.71,-382.25 357.75,-289.5 362.58,-281.51 367.68,-272.85 372.43,-264.69"/>
<polygon fill="white" stroke="white" points="375.46,-266.45 377.44,-256.04 369.4,-262.94 375.46,-266.45"/>
<text text-anchor="middle" x="321.75" y="-378.7" font-family="Times,serif" font-size="14.00" fill="white">dep:1</text>
<polyline fill="none" stroke="white" points="336.75,-375.5 306.75,-375.5 307.27,-374.92"/>
</g>
<!-- clean&#45;architecture&#45;&gt;clean&#45;architecture/controller -->
<g id="edge11" class="edge">
<title>clean&#45;architecture&#45;&gt;clean&#45;architecture/controller</title>
<path fill="none" stroke="white" d="M191.75,-512.68C191.75,-500.38 191.75,-485.13 191.75,-471.47"/>
<polygon fill="white" stroke="white" points="195.25,-471.51 191.75,-461.51 188.25,-471.51 195.25,-471.51"/>
<text text-anchor="middle" x="206.75" y="-481.2" font-family="Times,serif" font-size="14.00" fill="white">dep:6</text>
<polyline fill="none" stroke="white" points="221.75,-478 191.75,-478 191.75,-486.6"/>
</g>
</g>
</svg>
