<?xml version="1.0" encoding="UTF-8" standalone="no"?>
<!DOCTYPE svg PUBLIC "-//W3C//DTD SVG 1.1//EN"
 "http://www.w3.org/Graphics/SVG/1.1/DTD/svg11.dtd">
<!-- Generated by graphviz version 11.0.0 (20240428.1522)
 -->
<!-- Title: d Pages: 1 -->
<svg width="777pt" height="569pt"
 viewBox="36.00 36.00 740.50 533.00" xmlns="http://www.w3.org/2000/svg" xmlns:xlink="http://www.w3.org/1999/xlink">
<g id="graph0" class="graph" transform="scale(1 1) rotate(0) translate(40 529)">
<title>d</title>
<polygon fill="#343434" stroke="none" points="-4,4 -4,-493 700.5,-493 700.5,4 -4,4"/>
<text text-anchor="middle" x="348.25" y="-467.9" font-family="Times,serif" font-size="18.00" fill="white">package relation</text>
<!-- clean&#45;architecture/repository/db_map -->
<g id="node1" class="node">
<title>clean&#45;architecture/repository/db_map</title>
<polygon fill="#3288bd" stroke="#e6f598" points="223.75,-103 223.75,-152 373.25,-152 373.25,-103 223.75,-103"/>
<text text-anchor="middle" x="298.5" y="-134.7" font-family="Times,serif" font-size="14.00" fill="#ffffbf">pkg: dbmap</text>
<polyline fill="none" stroke="#e6f598" points="223.75,-127.5 373.25,-127.5"/>
<text text-anchor="middle" x="298.5" y="-110.2" font-family="Times,serif" font-size="14.00" fill="#ffffbf">path: repository/db_map</text>
</g>
<!-- clean&#45;architecture/entity -->
<g id="node2" class="node">
<title>clean&#45;architecture/entity</title>
<polygon fill="#3288bd" stroke="#e6f598" points="136.75,-0.5 136.75,-49.5 214.25,-49.5 214.25,-0.5 136.75,-0.5"/>
<text text-anchor="middle" x="175.5" y="-32.2" font-family="Times,serif" font-size="14.00" fill="#ffffbf">pkg: entity</text>
<polyline fill="none" stroke="#e6f598" points="136.75,-25 214.25,-25"/>
<text text-anchor="middle" x="175.5" y="-7.7" font-family="Times,serif" font-size="14.00" fill="#ffffbf">path: entity</text>
</g>
<!-- clean&#45;architecture/repository/db_map&#45;&gt;clean&#45;architecture/entity -->
<g id="edge1" class="edge">
<title>clean&#45;architecture/repository/db_map&#45;&gt;clean&#45;architecture/entity</title>
<path fill="none" stroke="white" d="M269.35,-102.68C252.62,-89.02 231.43,-71.7 213.42,-56.98"/>
<polygon fill="white" stroke="white" points="216,-54.57 206.04,-50.95 211.57,-59.99 216,-54.57"/>
<text text-anchor="middle" x="259.5" y="-71.2" font-family="Times,serif" font-size="14.00" fill="white">dep:2</text>
<polyline fill="none" stroke="white" points="274.5,-68 244.5,-68 250.39,-87.19"/>
</g>
<!-- clean&#45;architecture/repository -->
<g id="node3" class="node">
<title>clean&#45;architecture/repository</title>
<polygon fill="#3288bd" stroke="#e6f598" points="247.75,-0.5 247.75,-49.5 349.25,-49.5 349.25,-0.5 247.75,-0.5"/>
<text text-anchor="middle" x="298.5" y="-32.2" font-family="Times,serif" font-size="14.00" fill="#ffffbf">pkg: repository</text>
<polyline fill="none" stroke="#e6f598" points="247.75,-25 349.25,-25"/>
<text text-anchor="middle" x="298.5" y="-7.7" font-family="Times,serif" font-size="14.00" fill="#ffffbf">path: repository</text>
</g>
<!-- clean&#45;architecture/repository/db_map&#45;&gt;clean&#45;architecture/repository -->
<g id="edge2" class="edge">
<title>clean&#45;architecture/repository/db_map&#45;&gt;clean&#45;architecture/repository</title>
<path fill="none" stroke="white" d="M298.5,-102.68C298.5,-90.38 298.5,-75.13 298.5,-61.47"/>
<polygon fill="white" stroke="white" points="302,-61.51 298.5,-51.51 295,-61.51 302,-61.51"/>
<text text-anchor="middle" x="313.5" y="-71.2" font-family="Times,serif" font-size="14.00" fill="white">dep:2</text>
<polyline fill="none" stroke="white" points="328.5,-68 298.5,-68 298.5,-76.6"/>
</g>
<!-- clean&#45;architecture/repository/mysql -->
<g id="node4" class="node">
<title>clean&#45;architecture/repository/mysql</title>
<polygon fill="#3288bd" stroke="#e6f598" points="0,-103 0,-152 139,-152 139,-103 0,-103"/>
<text text-anchor="middle" x="69.5" y="-134.7" font-family="Times,serif" font-size="14.00" fill="#ffffbf">pkg: mysql</text>
<polyline fill="none" stroke="#e6f598" points="0,-127.5 139,-127.5"/>
<text text-anchor="middle" x="69.5" y="-110.2" font-family="Times,serif" font-size="14.00" fill="#ffffbf">path: repository/mysql</text>
</g>
<!-- clean&#45;architecture/repository/mysql&#45;&gt;clean&#45;architecture/entity -->
<g id="edge3" class="edge">
<title>clean&#45;architecture/repository/mysql&#45;&gt;clean&#45;architecture/entity</title>
<path fill="none" stroke="white" d="M94.62,-102.68C108.77,-89.26 126.64,-72.33 141.97,-57.79"/>
<polygon fill="white" stroke="white" points="144.25,-60.46 149.09,-51.04 139.43,-55.38 144.25,-60.46"/>
<text text-anchor="middle" x="144.5" y="-71.2" font-family="Times,serif" font-size="14.00" fill="white">dep:2</text>
<polyline fill="none" stroke="white" points="159.5,-68 129.5,-68 134.25,-65.11"/>
</g>
<!-- clean&#45;architecture/controller -->
<g id="node5" class="node">
<title>clean&#45;architecture/controller</title>
<polygon fill="#3288bd" stroke="#e6f598" points="505.88,-308 505.88,-357 605.12,-357 605.12,-308 505.88,-308"/>
<text text-anchor="middle" x="555.5" y="-339.7" font-family="Times,serif" font-size="14.00" fill="#ffffbf">pkg: controller</text>
<polyline fill="none" stroke="#e6f598" points="505.88,-332.5 605.12,-332.5"/>
<text text-anchor="middle" x="555.5" y="-315.2" font-family="Times,serif" font-size="14.00" fill="#ffffbf">path: controller</text>
</g>
<!-- clean&#45;architecture/controller&#45;&gt;clean&#45;architecture/repository -->
<g id="edge4" class="edge">
<title>clean&#45;architecture/controller&#45;&gt;clean&#45;architecture/repository</title>
<path fill="none" stroke="white" d="M580.42,-307.81C623.97,-263.57 704.56,-167.01 652.5,-102.5 616.53,-57.92 452.43,-38.05 360.82,-30.29"/>
<polygon fill="white" stroke="white" points="361.24,-26.82 350.98,-29.49 360.67,-33.79 361.24,-26.82"/>
<text text-anchor="middle" x="681.5" y="-173.7" font-family="Times,serif" font-size="14.00" fill="white">dep:1</text>
<polyline fill="none" stroke="white" points="696.5,-170.5 666.5,-170.5 666.49,-175.17"/>
</g>
<!-- clean&#45;architecture/controller/in -->
<g id="node6" class="node">
<title>clean&#45;architecture/controller/in</title>
<polygon fill="#3288bd" stroke="#e6f598" points="529.75,-103 529.75,-152 643.25,-152 643.25,-103 529.75,-103"/>
<text text-anchor="middle" x="586.5" y="-134.7" font-family="Times,serif" font-size="14.00" fill="#ffffbf">pkg: in</text>
<polyline fill="none" stroke="#e6f598" points="529.75,-127.5 643.25,-127.5"/>
<text text-anchor="middle" x="586.5" y="-110.2" font-family="Times,serif" font-size="14.00" fill="#ffffbf">path: controller/in</text>
</g>
<!-- clean&#45;architecture/controller&#45;&gt;clean&#45;architecture/controller/in -->
<g id="edge5" class="edge">
<title>clean&#45;architecture/controller&#45;&gt;clean&#45;architecture/controller/in</title>
<path fill="none" stroke="white" d="M559.12,-307.82C564.55,-272.23 574.85,-204.76 581.16,-163.49"/>
<polygon fill="white" stroke="white" points="584.58,-164.26 582.63,-153.84 577.66,-163.2 584.58,-164.26"/>
<text text-anchor="middle" x="589.5" y="-224.95" font-family="Times,serif" font-size="14.00" fill="white">dep:2</text>
<polyline fill="none" stroke="white" points="604.5,-221.75 574.5,-221.75 571.42,-227.22"/>
</g>
<!-- clean&#45;architecture/usecase -->
<g id="node7" class="node">
<title>clean&#45;architecture/usecase</title>
<polygon fill="#3288bd" stroke="#e6f598" points="429.5,-205.5 429.5,-254.5 517.5,-254.5 517.5,-205.5 429.5,-205.5"/>
<text text-anchor="middle" x="473.5" y="-237.2" font-family="Times,serif" font-size="14.00" fill="#ffffbf">pkg: usecase</text>
<polyline fill="none" stroke="#e6f598" points="429.5,-230 517.5,-230"/>
<text text-anchor="middle" x="473.5" y="-212.7" font-family="Times,serif" font-size="14.00" fill="#ffffbf">path: usecase</text>
</g>
<!-- clean&#45;architecture/controller&#45;&gt;clean&#45;architecture/usecase -->
<g id="edge6" class="edge">
<title>clean&#45;architecture/controller&#45;&gt;clean&#45;architecture/usecase</title>
<path fill="none" stroke="white" d="M536.07,-307.68C525.32,-294.51 511.81,-277.95 500.1,-263.6"/>
<polygon fill="white" stroke="white" points="503.07,-261.7 494.03,-256.17 497.64,-266.13 503.07,-261.7"/>
<text text-anchor="middle" x="533.5" y="-276.2" font-family="Times,serif" font-size="14.00" fill="white">dep:2</text>
<polyline fill="none" stroke="white" points="548.5,-273 518.5,-273 522.19,-290.68"/>
</g>
<!-- clean&#45;architecture/usecase&#45;&gt;clean&#45;architecture/entity -->
<g id="edge11" class="edge">
<title>clean&#45;architecture/usecase&#45;&gt;clean&#45;architecture/entity</title>
<path fill="none" stroke="white" d="M429.16,-223.55C356.14,-213.6 215.53,-189.98 184.5,-152.5 163.74,-127.42 163.96,-89.11 167.85,-61.22"/>
<polygon fill="white" stroke="white" points="171.28,-61.9 169.45,-51.46 164.38,-60.77 171.28,-61.9"/>
<text text-anchor="middle" x="199.5" y="-122.45" font-family="Times,serif" font-size="14.00" fill="white">dep:2</text>
<polyline fill="none" stroke="white" points="214.5,-119.25 184.5,-119.25 175.9,-139.19"/>
</g>
<!-- clean&#45;architecture/usecase&#45;&gt;clean&#45;architecture/repository/mysql -->
<g id="edge12" class="edge">
<title>clean&#45;architecture/usecase&#45;&gt;clean&#45;architecture/repository/mysql</title>
<path fill="none" stroke="white" d="M429.18,-226.98C349,-222.78 183.34,-211.36 131.5,-187 118.32,-180.8 106.1,-170.72 96.06,-160.66"/>
<polygon fill="white" stroke="white" points="98.62,-158.27 89.21,-153.4 93.53,-163.08 98.62,-158.27"/>
<text text-anchor="middle" x="146.5" y="-173.7" font-family="Times,serif" font-size="14.00" fill="white">dep:1</text>
<polyline fill="none" stroke="white" points="161.5,-170.5 131.5,-170.5 131.48,-186.99"/>
</g>
<!-- clean&#45;architecture/usecase&#45;&gt;clean&#45;architecture/controller/in -->
<g id="edge10" class="edge">
<title>clean&#45;architecture/usecase&#45;&gt;clean&#45;architecture/controller/in</title>
<path fill="none" stroke="white" d="M496.14,-205.28C506.87,-194.37 520.04,-181.45 532.5,-170.5 536.74,-166.77 541.27,-162.98 545.83,-159.28"/>
<polygon fill="white" stroke="white" points="547.75,-162.22 553.39,-153.25 543.39,-156.75 547.75,-162.22"/>
<text text-anchor="middle" x="547.5" y="-173.7" font-family="Times,serif" font-size="14.00" fill="white">dep:2</text>
<polyline fill="none" stroke="white" points="562.5,-170.5 532.5,-170.5 536.96,-166.64"/>
</g>
<!-- clean&#45;architecture/controller/out -->
<g id="node9" class="node">
<title>clean&#45;architecture/controller/out</title>
<polygon fill="#3288bd" stroke="#e6f598" points="391.38,-103 391.38,-152 511.62,-152 511.62,-103 391.38,-103"/>
<text text-anchor="middle" x="451.5" y="-134.7" font-family="Times,serif" font-size="14.00" fill="#ffffbf">pkg: out</text>
<polyline fill="none" stroke="#e6f598" points="391.38,-127.5 511.62,-127.5"/>
<text text-anchor="middle" x="451.5" y="-110.2" font-family="Times,serif" font-size="14.00" fill="#ffffbf">path: controller/out</text>
</g>
<!-- clean&#45;architecture/usecase&#45;&gt;clean&#45;architecture/controller/out -->
<g id="edge9" class="edge">
<title>clean&#45;architecture/usecase&#45;&gt;clean&#45;architecture/controller/out</title>
<path fill="none" stroke="white" d="M468.29,-205.18C465.57,-192.76 462.19,-177.32 459.17,-163.56"/>
<polygon fill="white" stroke="white" points="462.63,-162.99 457.08,-153.97 455.8,-164.49 462.63,-162.99"/>
<text text-anchor="middle" x="478.5" y="-173.7" font-family="Times,serif" font-size="14.00" fill="white">dep:1</text>
<polyline fill="none" stroke="white" points="493.5,-170.5 463.5,-170.5 463.18,-181.85"/>
</g>
<!-- clean&#45;architecture -->
<g id="node8" class="node">
<title>clean&#45;architecture</title>
<polygon fill="#3288bd" stroke="#e6f598" points="519.75,-410.5 519.75,-459.5 591.25,-459.5 591.25,-410.5 519.75,-410.5"/>
<text text-anchor="middle" x="555.5" y="-442.2" font-family="Times,serif" font-size="14.00" fill="#ffffbf">pkg: main</text>
<polyline fill="none" stroke="#e6f598" points="519.75,-435 591.25,-435"/>
<text text-anchor="middle" x="555.5" y="-417.7" font-family="Times,serif" font-size="14.00" fill="#ffffbf">path: .</text>
</g>
<!-- clean&#45;architecture&#45;&gt;clean&#45;architecture/repository/mysql -->
<g id="edge8" class="edge">
<title>clean&#45;architecture&#45;&gt;clean&#45;architecture/repository/mysql</title>
<path fill="none" stroke="white" d="M519.28,-421.71C437.06,-392.33 233.45,-311.13 104.5,-187 97.21,-179.98 90.88,-171.12 85.69,-162.43"/>
<polygon fill="white" stroke="white" points="88.78,-160.8 80.86,-153.76 82.67,-164.2 88.78,-160.8"/>
<text text-anchor="middle" x="253.5" y="-276.2" font-family="Times,serif" font-size="14.00" fill="white">dep:1</text>
<polyline fill="none" stroke="white" points="268.5,-273 238.5,-273 245.87,-293.34"/>
</g>
<!-- clean&#45;architecture&#45;&gt;clean&#45;architecture/controller -->
<g id="edge7" class="edge">
<title>clean&#45;architecture&#45;&gt;clean&#45;architecture/controller</title>
<path fill="none" stroke="white" d="M555.5,-410.18C555.5,-397.88 555.5,-382.63 555.5,-368.97"/>
<polygon fill="white" stroke="white" points="559,-369.01 555.5,-359.01 552,-369.01 559,-369.01"/>
<text text-anchor="middle" x="570.5" y="-378.7" font-family="Times,serif" font-size="14.00" fill="white">dep:6</text>
<polyline fill="none" stroke="white" points="585.5,-375.5 555.5,-375.5 555.5,-384.1"/>
</g>
</g>
</svg>
