<?xml version="1.0" encoding="UTF-8" standalone="no"?>
<!DOCTYPE svg PUBLIC "-//W3C//DTD SVG 1.1//EN"
 "http://www.w3.org/Graphics/SVG/1.1/DTD/svg11.dtd">
<!-- Generated by graphviz version 11.0.0 (20240428.1522)
 -->
<!-- Title: d Pages: 1 -->
<svg width="1163pt" height="569pt"
 viewBox="36.00 36.00 1126.50 533.00" xmlns="http://www.w3.org/2000/svg" xmlns:xlink="http://www.w3.org/1999/xlink">
<g id="graph0" class="graph" transform="scale(1 1) rotate(0) translate(40 529)">
<title>d</title>
<polygon fill="#343434" stroke="none" points="-4,4 -4,-493 1086.5,-493 1086.5,4 -4,4"/>
<text text-anchor="middle" x="541.25" y="-467.9" font-family="Times,serif" font-size="18.00" fill="white">package relation</text>
<!-- architecture/clean -->
<g id="node1" class="node">
<title>architecture/clean</title>
<polygon fill="#3288bd" stroke="#e6f598" points="144.25,-410.5 144.25,-459.5 219.5,-459.5 219.5,-410.5 144.25,-410.5"/>
<text text-anchor="middle" x="181.88" y="-442.2" font-family="Times,serif" font-size="14.00" fill="#ffffbf">pkg: main</text>
<polyline fill="none" stroke="#e6f598" points="144.25,-435 219.5,-435"/>
<text text-anchor="middle" x="181.88" y="-417.7" font-family="Times,serif" font-size="14.00" fill="#ffffbf">path: clean</text>
</g>
<!-- architecture/clean/controller -->
<g id="node2" class="node">
<title>architecture/clean/controller</title>
<polygon fill="#3288bd" stroke="#e6f598" points="116.12,-308 116.12,-357 247.62,-357 247.62,-308 116.12,-308"/>
<text text-anchor="middle" x="181.88" y="-339.7" font-family="Times,serif" font-size="14.00" fill="#ffffbf">pkg: controller</text>
<polyline fill="none" stroke="#e6f598" points="116.12,-332.5 247.62,-332.5"/>
<text text-anchor="middle" x="181.88" y="-315.2" font-family="Times,serif" font-size="14.00" fill="#ffffbf">path: clean/controller</text>
</g>
<!-- architecture/clean&#45;&gt;architecture/clean/controller -->
<g id="edge1" class="edge">
<title>architecture/clean&#45;&gt;architecture/clean/controller</title>
<path fill="none" stroke="white" d="M181.88,-410.18C181.88,-397.88 181.88,-382.63 181.88,-368.97"/>
<polygon fill="white" stroke="white" points="185.38,-369.01 181.88,-359.01 178.38,-369.01 185.38,-369.01"/>
<text text-anchor="middle" x="196.88" y="-378.7" font-family="Times,serif" font-size="14.00" fill="white">dep:6</text>
<polyline fill="none" stroke="white" points="211.88,-375.5 181.88,-375.5 181.88,-384.1"/>
</g>
<!-- architecture/clean/usecase -->
<g id="node6" class="node">
<title>architecture/clean/usecase</title>
<polygon fill="#3288bd" stroke="#e6f598" points="121.75,-205.5 121.75,-254.5 242,-254.5 242,-205.5 121.75,-205.5"/>
<text text-anchor="middle" x="181.88" y="-237.2" font-family="Times,serif" font-size="14.00" fill="#ffffbf">pkg: usecase</text>
<polyline fill="none" stroke="#e6f598" points="121.75,-230 242,-230"/>
<text text-anchor="middle" x="181.88" y="-212.7" font-family="Times,serif" font-size="14.00" fill="#ffffbf">path: clean/usecase</text>
</g>
<!-- architecture/clean/controller&#45;&gt;architecture/clean/usecase -->
<g id="edge15" class="edge">
<title>architecture/clean/controller&#45;&gt;architecture/clean/usecase</title>
<path fill="none" stroke="white" d="M181.88,-307.68C181.88,-295.38 181.88,-280.13 181.88,-266.47"/>
<polygon fill="white" stroke="white" points="185.38,-266.51 181.88,-256.51 178.38,-266.51 185.38,-266.51"/>
<text text-anchor="middle" x="196.88" y="-276.2" font-family="Times,serif" font-size="14.00" fill="white">dep:2</text>
<polyline fill="none" stroke="white" points="211.88,-273 181.88,-273 181.88,-281.6"/>
</g>
<!-- architecture/clean/controller/in -->
<g id="node7" class="node">
<title>architecture/clean/controller/in</title>
<polygon fill="#3288bd" stroke="#e6f598" points="0,-103 0,-152 145.75,-152 145.75,-103 0,-103"/>
<text text-anchor="middle" x="72.88" y="-134.7" font-family="Times,serif" font-size="14.00" fill="#ffffbf">pkg: in</text>
<polyline fill="none" stroke="#e6f598" points="0,-127.5 145.75,-127.5"/>
<text text-anchor="middle" x="72.88" y="-110.2" font-family="Times,serif" font-size="14.00" fill="#ffffbf">path: clean/controller/in</text>
</g>
<!-- architecture/clean/controller&#45;&gt;architecture/clean/controller/in -->
<g id="edge14" class="edge">
<title>architecture/clean/controller&#45;&gt;architecture/clean/controller/in</title>
<path fill="none" stroke="white" d="M135.93,-307.6C116.13,-294.79 94.81,-277.07 82.88,-255 67.72,-226.98 66.49,-190.25 68.3,-163.6"/>
<polygon fill="white" stroke="white" points="71.75,-164.26 69.13,-153.99 64.78,-163.65 71.75,-164.26"/>
<text text-anchor="middle" x="97.88" y="-224.95" font-family="Times,serif" font-size="14.00" fill="white">dep:2</text>
<polyline fill="none" stroke="white" points="112.88,-221.75 82.88,-221.75 75.51,-237.73"/>
</g>
<!-- architecture/clean/repository -->
<g id="node8" class="node">
<title>architecture/clean/repository</title>
<polygon fill="#3288bd" stroke="#e6f598" points="400,-103 400,-152 533.75,-152 533.75,-103 400,-103"/>
<text text-anchor="middle" x="466.88" y="-134.7" font-family="Times,serif" font-size="14.00" fill="#ffffbf">pkg: repository</text>
<polyline fill="none" stroke="#e6f598" points="400,-127.5 533.75,-127.5"/>
<text text-anchor="middle" x="466.88" y="-110.2" font-family="Times,serif" font-size="14.00" fill="#ffffbf">path: clean/repository</text>
</g>
<!-- architecture/clean/controller&#45;&gt;architecture/clean/repository -->
<g id="edge16" class="edge">
<title>architecture/clean/controller&#45;&gt;architecture/clean/repository</title>
<path fill="none" stroke="white" d="M215.41,-307.62C267.4,-270.58 367.39,-199.36 424.37,-158.78"/>
<polygon fill="white" stroke="white" points="426.12,-161.82 432.24,-153.17 422.06,-156.12 426.12,-161.82"/>
<text text-anchor="middle" x="372.88" y="-224.95" font-family="Times,serif" font-size="14.00" fill="white">dep:1</text>
<polyline fill="none" stroke="white" points="387.88,-221.75 357.88,-221.75 356.72,-206.96"/>
</g>
<!-- architecture/onion -->
<g id="node3" class="node">
<title>architecture/onion</title>
<polygon fill="#3288bd" stroke="#e6f598" points="937.12,-410.5 937.12,-459.5 1014.62,-459.5 1014.62,-410.5 937.12,-410.5"/>
<text text-anchor="middle" x="975.88" y="-442.2" font-family="Times,serif" font-size="14.00" fill="#ffffbf">pkg: main</text>
<polyline fill="none" stroke="#e6f598" points="937.12,-435 1014.62,-435"/>
<text text-anchor="middle" x="975.88" y="-417.7" font-family="Times,serif" font-size="14.00" fill="#ffffbf">path: onion</text>
</g>
<!-- architecture/onion/presentation -->
<g id="node4" class="node">
<title>architecture/onion/presentation</title>
<polygon fill="#3288bd" stroke="#e6f598" points="704.25,-308 704.25,-357 851.5,-357 851.5,-308 704.25,-308"/>
<text text-anchor="middle" x="777.88" y="-339.7" font-family="Times,serif" font-size="14.00" fill="#ffffbf">pkg: presentation</text>
<polyline fill="none" stroke="#e6f598" points="704.25,-332.5 851.5,-332.5"/>
<text text-anchor="middle" x="777.88" y="-315.2" font-family="Times,serif" font-size="14.00" fill="#ffffbf">path: onion/presentation</text>
</g>
<!-- architecture/onion&#45;&gt;architecture/onion/presentation -->
<g id="edge2" class="edge">
<title>architecture/onion&#45;&gt;architecture/onion/presentation</title>
<path fill="none" stroke="white" d="M936.76,-414.14C907.65,-399.37 867.48,-378.98 834.81,-362.4"/>
<polygon fill="white" stroke="white" points="836.78,-359.48 826.28,-358.07 833.62,-365.72 836.78,-359.48"/>
<text text-anchor="middle" x="902.88" y="-378.7" font-family="Times,serif" font-size="14.00" fill="white">dep:1</text>
<polyline fill="none" stroke="white" points="917.88,-375.5 887.88,-375.5 897.46,-394.2"/>
</g>
<!-- architecture/onion/infrastructure/postgresql -->
<g id="node5" class="node">
<title>architecture/onion/infrastructure/postgresql</title>
<polygon fill="#3288bd" stroke="#e6f598" points="869.25,-308 869.25,-357 1082.5,-357 1082.5,-308 869.25,-308"/>
<text text-anchor="middle" x="975.88" y="-339.7" font-family="Times,serif" font-size="14.00" fill="#ffffbf">pkg: postgresql</text>
<polyline fill="none" stroke="#e6f598" points="869.25,-332.5 1082.5,-332.5"/>
<text text-anchor="middle" x="975.88" y="-315.2" font-family="Times,serif" font-size="14.00" fill="#ffffbf">path: onion/infrastructure/postgresql</text>
</g>
<!-- architecture/onion&#45;&gt;architecture/onion/infrastructure/postgresql -->
<g id="edge3" class="edge">
<title>architecture/onion&#45;&gt;architecture/onion/infrastructure/postgresql</title>
<path fill="none" stroke="white" d="M975.88,-410.18C975.88,-397.88 975.88,-382.63 975.88,-368.97"/>
<polygon fill="white" stroke="white" points="979.38,-369.01 975.88,-359.01 972.38,-369.01 979.38,-369.01"/>
<text text-anchor="middle" x="990.88" y="-378.7" font-family="Times,serif" font-size="14.00" fill="white">dep:3</text>
<polyline fill="none" stroke="white" points="1005.88,-375.5 975.88,-375.5 975.88,-384.1"/>
</g>
<!-- architecture/onion/application -->
<g id="node11" class="node">
<title>architecture/onion/application</title>
<polygon fill="#3288bd" stroke="#e6f598" points="707.25,-205.5 707.25,-254.5 848.5,-254.5 848.5,-205.5 707.25,-205.5"/>
<text text-anchor="middle" x="777.88" y="-237.2" font-family="Times,serif" font-size="14.00" fill="#ffffbf">pkg: application</text>
<polyline fill="none" stroke="#e6f598" points="707.25,-230 848.5,-230"/>
<text text-anchor="middle" x="777.88" y="-212.7" font-family="Times,serif" font-size="14.00" fill="#ffffbf">path: onion/application</text>
</g>
<!-- architecture/onion/presentation&#45;&gt;architecture/onion/application -->
<g id="edge20" class="edge">
<title>architecture/onion/presentation&#45;&gt;architecture/onion/application</title>
<path fill="none" stroke="white" d="M777.88,-307.68C777.88,-295.38 777.88,-280.13 777.88,-266.47"/>
<polygon fill="white" stroke="white" points="781.38,-266.51 777.88,-256.51 774.38,-266.51 781.38,-266.51"/>
<text text-anchor="middle" x="792.88" y="-276.2" font-family="Times,serif" font-size="14.00" fill="white">dep:1</text>
<polyline fill="none" stroke="white" points="807.88,-273 777.88,-273 777.88,-281.6"/>
</g>
<!-- architecture/onion/repository -->
<g id="node12" class="node">
<title>architecture/onion/repository</title>
<polygon fill="#3288bd" stroke="#e6f598" points="821.88,-103 821.88,-152 957.88,-152 957.88,-103 821.88,-103"/>
<text text-anchor="middle" x="889.88" y="-134.7" font-family="Times,serif" font-size="14.00" fill="#ffffbf">pkg: repository</text>
<polyline fill="none" stroke="#e6f598" points="821.88,-127.5 957.88,-127.5"/>
<text text-anchor="middle" x="889.88" y="-110.2" font-family="Times,serif" font-size="14.00" fill="#ffffbf">path: onion/repository</text>
</g>
<!-- architecture/onion/presentation&#45;&gt;architecture/onion/repository -->
<g id="edge19" class="edge">
<title>architecture/onion/presentation&#45;&gt;architecture/onion/repository</title>
<path fill="none" stroke="white" d="M810.58,-307.55C827.04,-293.88 845.97,-275.42 857.88,-255 874.37,-226.7 882.44,-190.01 886.34,-163.44"/>
<polygon fill="white" stroke="white" points="889.77,-164.24 887.61,-153.87 882.83,-163.32 889.77,-164.24"/>
<text text-anchor="middle" x="891.88" y="-224.95" font-family="Times,serif" font-size="14.00" fill="white">dep:1</text>
<polyline fill="none" stroke="white" points="906.88,-221.75 876.88,-221.75 872.2,-223.22"/>
</g>
<!-- architecture/onion/domain -->
<g id="node13" class="node">
<title>architecture/onion/domain</title>
<polygon fill="#3288bd" stroke="#e6f598" points="770.62,-0.5 770.62,-49.5 893.12,-49.5 893.12,-0.5 770.62,-0.5"/>
<text text-anchor="middle" x="831.88" y="-32.2" font-family="Times,serif" font-size="14.00" fill="#ffffbf">pkg: domain</text>
<polyline fill="none" stroke="#e6f598" points="770.62,-25 893.12,-25"/>
<text text-anchor="middle" x="831.88" y="-7.7" font-family="Times,serif" font-size="14.00" fill="#ffffbf">path: onion/domain</text>
</g>
<!-- architecture/onion/presentation&#45;&gt;architecture/onion/domain -->
<g id="edge21" class="edge">
<title>architecture/onion/presentation&#45;&gt;architecture/onion/domain</title>
<path fill="none" stroke="white" d="M741.8,-307.62C725.08,-294.34 706.94,-276.21 697.88,-255 689.14,-234.57 691.62,-226.32 697.88,-205 718.26,-135.56 739.2,-123.31 785.88,-68 788.86,-64.47 792.12,-60.94 795.5,-57.52"/>
<polygon fill="white" stroke="white" points="797.66,-60.3 802.4,-50.83 792.79,-55.28 797.66,-60.3"/>
<text text-anchor="middle" x="723.88" y="-173.7" font-family="Times,serif" font-size="14.00" fill="white">dep:1</text>
<polyline fill="none" stroke="white" points="738.88,-170.5 708.88,-170.5 709.06,-172.53"/>
</g>
<!-- architecture/onion/infrastructure/postgresql&#45;&gt;architecture/onion/repository -->
<g id="edge17" class="edge">
<title>architecture/onion/infrastructure/postgresql&#45;&gt;architecture/onion/repository</title>
<path fill="none" stroke="white" d="M965.84,-307.82C950.67,-272 921.82,-203.9 904.36,-162.7"/>
<polygon fill="white" stroke="white" points="907.69,-161.58 900.57,-153.74 901.25,-164.31 907.69,-161.58"/>
<text text-anchor="middle" x="956.88" y="-224.95" font-family="Times,serif" font-size="14.00" fill="white">dep:1</text>
<polyline fill="none" stroke="white" points="971.88,-221.75 941.88,-221.75 936.49,-238.53"/>
</g>
<!-- architecture/onion/infrastructure/postgresql&#45;&gt;architecture/onion/domain -->
<g id="edge18" class="edge">
<title>architecture/onion/infrastructure/postgresql&#45;&gt;architecture/onion/domain</title>
<path fill="none" stroke="white" d="M982.22,-307.77C992.59,-263.44 1008.19,-166.76 966.88,-102.5 952.02,-79.4 927.59,-62.57 903.57,-50.67"/>
<polygon fill="white" stroke="white" points="905.24,-47.59 894.7,-46.52 902.27,-53.93 905.24,-47.59"/>
<text text-anchor="middle" x="1006.88" y="-173.7" font-family="Times,serif" font-size="14.00" fill="white">dep:1</text>
<polyline fill="none" stroke="white" points="1021.88,-170.5 991.88,-170.5 992.25,-180.41"/>
</g>
<!-- architecture/clean/usecase&#45;&gt;architecture/clean/controller/in -->
<g id="edge4" class="edge">
<title>architecture/clean/usecase&#45;&gt;architecture/clean/controller/in</title>
<path fill="none" stroke="white" d="M156.04,-205.18C141.49,-191.76 123.12,-174.83 107.35,-160.29"/>
<polygon fill="white" stroke="white" points="109.74,-157.73 100.01,-153.52 104.99,-162.87 109.74,-157.73"/>
<text text-anchor="middle" x="149.88" y="-173.7" font-family="Times,serif" font-size="14.00" fill="white">dep:2</text>
<polyline fill="none" stroke="white" points="164.88,-170.5 134.88,-170.5 139.56,-189.98"/>
</g>
<!-- architecture/clean/usecase&#45;&gt;architecture/clean/repository -->
<g id="edge5" class="edge">
<title>architecture/clean/usecase&#45;&gt;architecture/clean/repository</title>
<path fill="none" stroke="white" d="M242.32,-207.69C285.06,-192.61 342.76,-172.27 388.96,-155.97"/>
<polygon fill="white" stroke="white" points="389.84,-159.38 398.11,-152.75 387.51,-152.77 389.84,-159.38"/>
<text text-anchor="middle" x="356.88" y="-173.7" font-family="Times,serif" font-size="14.00" fill="white">dep:2</text>
<polyline fill="none" stroke="white" points="371.88,-170.5 341.88,-170.5 353.16,-168.6"/>
</g>
<!-- architecture/clean/entity -->
<g id="node9" class="node">
<title>architecture/clean/entity</title>
<polygon fill="#3288bd" stroke="#e6f598" points="412,-0.5 412,-49.5 521.75,-49.5 521.75,-0.5 412,-0.5"/>
<text text-anchor="middle" x="466.88" y="-32.2" font-family="Times,serif" font-size="14.00" fill="#ffffbf">pkg: entity</text>
<polyline fill="none" stroke="#e6f598" points="412,-25 521.75,-25"/>
<text text-anchor="middle" x="466.88" y="-7.7" font-family="Times,serif" font-size="14.00" fill="#ffffbf">path: clean/entity</text>
</g>
<!-- architecture/clean/usecase&#45;&gt;architecture/clean/entity -->
<g id="edge6" class="edge">
<title>architecture/clean/usecase&#45;&gt;architecture/clean/entity</title>
<path fill="none" stroke="white" d="M176.12,-205.08C170.94,-177.2 167.31,-131.3 190.88,-102.5 217.25,-70.26 327.31,-47.46 400.23,-35.54"/>
<polygon fill="white" stroke="white" points="400.78,-39 410.1,-33.96 399.67,-32.09 400.78,-39"/>
<text text-anchor="middle" x="205.88" y="-122.45" font-family="Times,serif" font-size="14.00" fill="white">dep:1</text>
<polyline fill="none" stroke="white" points="220.88,-119.25 190.88,-119.25 190.88,-102.49"/>
</g>
<!-- architecture/clean/controller/out -->
<g id="node10" class="node">
<title>architecture/clean/controller/out</title>
<polygon fill="#3288bd" stroke="#e6f598" points="229.62,-103 229.62,-152 382.12,-152 382.12,-103 229.62,-103"/>
<text text-anchor="middle" x="305.88" y="-134.7" font-family="Times,serif" font-size="14.00" fill="#ffffbf">pkg: out</text>
<polyline fill="none" stroke="#e6f598" points="229.62,-127.5 382.12,-127.5"/>
<text text-anchor="middle" x="305.88" y="-110.2" font-family="Times,serif" font-size="14.00" fill="#ffffbf">path: clean/controller/out</text>
</g>
<!-- architecture/clean/usecase&#45;&gt;architecture/clean/controller/out -->
<g id="edge7" class="edge">
<title>architecture/clean/usecase&#45;&gt;architecture/clean/controller/out</title>
<path fill="none" stroke="white" d="M211.26,-205.18C228.13,-191.52 249.49,-174.2 267.65,-159.48"/>
<polygon fill="white" stroke="white" points="269.53,-162.46 275.09,-153.45 265.12,-157.02 269.53,-162.46"/>
<text text-anchor="middle" x="266.88" y="-173.7" font-family="Times,serif" font-size="14.00" fill="white">dep:1</text>
<polyline fill="none" stroke="white" points="281.88,-170.5 251.88,-170.5 257.59,-167.63"/>
</g>
<!-- architecture/clean/repository&#45;&gt;architecture/clean/entity -->
<g id="edge13" class="edge">
<title>architecture/clean/repository&#45;&gt;architecture/clean/entity</title>
<path fill="none" stroke="white" d="M466.88,-102.68C466.88,-90.38 466.88,-75.13 466.88,-61.47"/>
<polygon fill="white" stroke="white" points="470.38,-61.51 466.88,-51.51 463.38,-61.51 470.38,-61.51"/>
<text text-anchor="middle" x="481.88" y="-71.2" font-family="Times,serif" font-size="14.00" fill="white">dep:1</text>
<polyline fill="none" stroke="white" points="496.88,-68 466.88,-68 466.88,-76.6"/>
</g>
<!-- architecture/onion/application&#45;&gt;architecture/onion/repository -->
<g id="edge8" class="edge">
<title>architecture/onion/application&#45;&gt;architecture/onion/repository</title>
<path fill="none" stroke="white" d="M803.11,-205.14C814.54,-194.44 828.29,-181.73 840.88,-170.5 844.85,-166.96 849.03,-163.28 853.21,-159.65"/>
<polygon fill="white" stroke="white" points="855.3,-162.47 860.58,-153.29 850.72,-157.17 855.3,-162.47"/>
<text text-anchor="middle" x="855.88" y="-173.7" font-family="Times,serif" font-size="14.00" fill="white">dep:1</text>
<polyline fill="none" stroke="white" points="870.88,-170.5 840.88,-170.5 845.04,-166.81"/>
</g>
<!-- architecture/onion/application&#45;&gt;architecture/onion/domain -->
<g id="edge9" class="edge">
<title>architecture/onion/application&#45;&gt;architecture/onion/domain</title>
<path fill="none" stroke="white" d="M775.16,-205.05C773.05,-179.13 772.06,-136.89 782.88,-102.5 787.7,-87.15 796.46,-71.89 805.25,-59.08"/>
<polygon fill="white" stroke="white" points="808.04,-61.2 811.03,-51.03 802.36,-57.11 808.04,-61.2"/>
<text text-anchor="middle" x="797.88" y="-122.45" font-family="Times,serif" font-size="14.00" fill="white">dep:1</text>
<polyline fill="none" stroke="white" points="812.88,-119.25 782.88,-119.25 777.73,-123.8"/>
</g>
<!-- architecture/onion/repository&#45;&gt;architecture/onion/domain -->
<g id="edge10" class="edge">
<title>architecture/onion/repository&#45;&gt;architecture/onion/domain</title>
<path fill="none" stroke="white" d="M876.13,-102.68C868.74,-89.88 859.51,-73.89 851.39,-59.82"/>
<polygon fill="white" stroke="white" points="854.51,-58.22 846.48,-51.31 848.45,-61.72 854.51,-58.22"/>
<text text-anchor="middle" x="878.88" y="-71.2" font-family="Times,serif" font-size="14.00" fill="white">dep:1</text>
<polyline fill="none" stroke="white" points="893.88,-68 863.88,-68 865.23,-83.79"/>
</g>
<!-- architecture/clean/repository/mysql -->
<g id="node14" class="node">
<title>architecture/clean/repository/mysql</title>
<polygon fill="#3288bd" stroke="#e6f598" points="479.25,-205.5 479.25,-254.5 650.5,-254.5 650.5,-205.5 479.25,-205.5"/>
<text text-anchor="middle" x="564.88" y="-237.2" font-family="Times,serif" font-size="14.00" fill="#ffffbf">pkg: mysql</text>
<polyline fill="none" stroke="#e6f598" points="479.25,-230 650.5,-230"/>
<text text-anchor="middle" x="564.88" y="-212.7" font-family="Times,serif" font-size="14.00" fill="#ffffbf">path: clean/repository/mysql</text>
</g>
<!-- architecture/clean/repository/mysql&#45;&gt;architecture/clean/repository -->
<g id="edge12" class="edge">
<title>architecture/clean/repository/mysql&#45;&gt;architecture/clean/repository</title>
<path fill="none" stroke="white" d="M541.65,-205.18C528.69,-191.89 512.36,-175.14 498.27,-160.69"/>
<polygon fill="white" stroke="white" points="500.82,-158.29 491.33,-153.58 495.8,-163.18 500.82,-158.29"/>
<text text-anchor="middle" x="536.88" y="-173.7" font-family="Times,serif" font-size="14.00" fill="white">dep:1</text>
<polyline fill="none" stroke="white" points="551.88,-170.5 521.88,-170.5 526.29,-189.43"/>
</g>
<!-- architecture/clean/repository/mysql&#45;&gt;architecture/clean/entity -->
<g id="edge11" class="edge">
<title>architecture/clean/repository/mysql&#45;&gt;architecture/clean/entity</title>
<path fill="none" stroke="white" d="M565.03,-205.22C564.27,-178.7 560.14,-135.23 542.88,-102.5 533.98,-85.63 520.13,-70.08 506.68,-57.46"/>
<polygon fill="white" stroke="white" points="509.29,-55.11 499.52,-51.01 504.61,-60.31 509.29,-55.11"/>
<text text-anchor="middle" x="574.88" y="-122.45" font-family="Times,serif" font-size="14.00" fill="white">dep:1</text>
<polyline fill="none" stroke="white" points="589.88,-119.25 559.88,-119.25 554.91,-133.34"/>
</g>
</g>
</svg>
