<?xml version="1.0" encoding="UTF-8" standalone="no"?>
<!DOCTYPE svg PUBLIC "-//W3C//DTD SVG 1.1//EN"
 "http://www.w3.org/Graphics/SVG/1.1/DTD/svg11.dtd">
<!-- Generated by graphviz version 11.0.0 (20240428.1522)
 -->
<!-- Title: d Pages: 1 -->
<svg width="1157pt" height="569pt"
 viewBox="36.00 36.00 1120.50 533.00" xmlns="http://www.w3.org/2000/svg" xmlns:xlink="http://www.w3.org/1999/xlink">
<g id="graph0" class="graph" transform="scale(1 1) rotate(0) translate(40 529)">
<title>d</title>
<polygon fill="#343434" stroke="none" points="-4,4 -4,-493 1080.5,-493 1080.5,4 -4,4"/>
<text text-anchor="middle" x="538.25" y="-467.9" font-family="Times,serif" font-size="18.00" fill="white">package relation</text>
<!-- architecture/onion/application -->
<g id="node1" class="node">
<title>architecture/onion/application</title>
<polygon fill="#3288bd" stroke="#e6f598" points="234,-205.5 234,-254.5 375.25,-254.5 375.25,-205.5 234,-205.5"/>
<text text-anchor="middle" x="304.62" y="-237.2" font-family="Times,serif" font-size="14.00" fill="#ffffbf">pkg: application</text>
<polyline fill="none" stroke="#e6f598" points="234,-230 375.25,-230"/>
<text text-anchor="middle" x="304.62" y="-212.7" font-family="Times,serif" font-size="14.00" fill="#ffffbf">path: onion/application</text>
</g>
<!-- architecture/onion/domain -->
<g id="node2" class="node">
<title>architecture/onion/domain</title>
<polygon fill="#3288bd" stroke="#e6f598" points="216.38,-0.5 216.38,-49.5 338.88,-49.5 338.88,-0.5 216.38,-0.5"/>
<text text-anchor="middle" x="277.62" y="-32.2" font-family="Times,serif" font-size="14.00" fill="#ffffbf">pkg: domain</text>
<polyline fill="none" stroke="#e6f598" points="216.38,-25 338.88,-25"/>
<text text-anchor="middle" x="277.62" y="-7.7" font-family="Times,serif" font-size="14.00" fill="#ffffbf">path: onion/domain</text>
</g>
<!-- architecture/onion/application&#45;&gt;architecture/onion/domain -->
<g id="edge1" class="edge">
<title>architecture/onion/application&#45;&gt;architecture/onion/domain</title>
<path fill="none" stroke="white" d="M301.47,-205.32C296.74,-169.73 287.77,-102.26 282.28,-60.99"/>
<polygon fill="white" stroke="white" points="285.78,-60.8 281,-51.35 278.85,-61.72 285.78,-60.8"/>
<text text-anchor="middle" x="309.62" y="-122.45" font-family="Times,serif" font-size="14.00" fill="white">dep:1</text>
<polyline fill="none" stroke="white" points="324.62,-119.25 294.62,-119.25 291.42,-129.7"/>
</g>
<!-- architecture/onion/repository -->
<g id="node3" class="node">
<title>architecture/onion/repository</title>
<polygon fill="#3288bd" stroke="#e6f598" points="124.62,-103 124.62,-152 260.62,-152 260.62,-103 124.62,-103"/>
<text text-anchor="middle" x="192.62" y="-134.7" font-family="Times,serif" font-size="14.00" fill="#ffffbf">pkg: repository</text>
<polyline fill="none" stroke="#e6f598" points="124.62,-127.5 260.62,-127.5"/>
<text text-anchor="middle" x="192.62" y="-110.2" font-family="Times,serif" font-size="14.00" fill="#ffffbf">path: onion/repository</text>
</g>
<!-- architecture/onion/application&#45;&gt;architecture/onion/repository -->
<g id="edge2" class="edge">
<title>architecture/onion/application&#45;&gt;architecture/onion/repository</title>
<path fill="none" stroke="white" d="M277.12,-205.11C270.39,-199.22 263.23,-192.91 256.62,-187 246.82,-178.23 236.25,-168.63 226.58,-159.79"/>
<polygon fill="white" stroke="white" points="229.21,-157.45 219.47,-153.28 224.48,-162.61 229.21,-157.45"/>
<text text-anchor="middle" x="271.62" y="-173.7" font-family="Times,serif" font-size="14.00" fill="white">dep:1</text>
<polyline fill="none" stroke="white" points="286.62,-170.5 256.62,-170.5 261.03,-190.93"/>
</g>
<!-- architecture/onion/repository&#45;&gt;architecture/onion/domain -->
<g id="edge5" class="edge">
<title>architecture/onion/repository&#45;&gt;architecture/onion/domain</title>
<path fill="none" stroke="white" d="M212.77,-102.68C223.91,-89.51 237.91,-72.95 250.05,-58.6"/>
<polygon fill="white" stroke="white" points="252.57,-61.05 256.35,-51.15 247.22,-56.53 252.57,-61.05"/>
<text text-anchor="middle" x="255.62" y="-71.2" font-family="Times,serif" font-size="14.00" fill="white">dep:1</text>
<polyline fill="none" stroke="white" points="270.62,-68 240.62,-68 243.65,-66.17"/>
</g>
<!-- architecture/onion/infrastructure/postgresql -->
<g id="node4" class="node">
<title>architecture/onion/infrastructure/postgresql</title>
<polygon fill="#3288bd" stroke="#e6f598" points="0,-308 0,-357 213.25,-357 213.25,-308 0,-308"/>
<text text-anchor="middle" x="106.62" y="-339.7" font-family="Times,serif" font-size="14.00" fill="#ffffbf">pkg: postgresql</text>
<polyline fill="none" stroke="#e6f598" points="0,-332.5 213.25,-332.5"/>
<text text-anchor="middle" x="106.62" y="-315.2" font-family="Times,serif" font-size="14.00" fill="#ffffbf">path: onion/infrastructure/postgresql</text>
</g>
<!-- architecture/onion/infrastructure/postgresql&#45;&gt;architecture/onion/domain -->
<g id="edge4" class="edge">
<title>architecture/onion/infrastructure/postgresql&#45;&gt;architecture/onion/domain</title>
<path fill="none" stroke="white" d="M99.93,-307.53C88.95,-262.8 72.4,-165.48 115.62,-102.5 136.43,-72.19 172.56,-53.56 205.43,-42.28"/>
<polygon fill="white" stroke="white" points="206.09,-45.75 214.52,-39.34 203.93,-39.09 206.09,-45.75"/>
<text text-anchor="middle" x="105.62" y="-173.7" font-family="Times,serif" font-size="14.00" fill="white">dep:1</text>
<polyline fill="none" stroke="white" points="120.62,-170.5 90.62,-170.5 89.47,-176.99"/>
</g>
<!-- architecture/onion/infrastructure/postgresql&#45;&gt;architecture/onion/repository -->
<g id="edge3" class="edge">
<title>architecture/onion/infrastructure/postgresql&#45;&gt;architecture/onion/repository</title>
<path fill="none" stroke="white" d="M108.53,-307.66C111.34,-281.46 118.06,-238.62 133.62,-205 140.9,-189.29 151.89,-173.82 162.43,-160.94"/>
<polygon fill="white" stroke="white" points="164.83,-163.52 168.62,-153.63 159.49,-159 164.83,-163.52"/>
<text text-anchor="middle" x="148.62" y="-224.95" font-family="Times,serif" font-size="14.00" fill="white">dep:1</text>
<polyline fill="none" stroke="white" points="163.62,-221.75 133.62,-221.75 133.63,-204.99"/>
</g>
<!-- architecture/clean/repository/mysql -->
<g id="node5" class="node">
<title>architecture/clean/repository/mysql</title>
<polygon fill="#3288bd" stroke="#e6f598" points="432,-205.5 432,-254.5 603.25,-254.5 603.25,-205.5 432,-205.5"/>
<text text-anchor="middle" x="517.62" y="-237.2" font-family="Times,serif" font-size="14.00" fill="#ffffbf">pkg: mysql</text>
<polyline fill="none" stroke="#e6f598" points="432,-230 603.25,-230"/>
<text text-anchor="middle" x="517.62" y="-212.7" font-family="Times,serif" font-size="14.00" fill="#ffffbf">path: clean/repository/mysql</text>
</g>
<!-- architecture/clean/repository -->
<g id="node6" class="node">
<title>architecture/clean/repository</title>
<polygon fill="#3288bd" stroke="#e6f598" points="542.75,-103 542.75,-152 676.5,-152 676.5,-103 542.75,-103"/>
<text text-anchor="middle" x="609.62" y="-134.7" font-family="Times,serif" font-size="14.00" fill="#ffffbf">pkg: repository</text>
<polyline fill="none" stroke="#e6f598" points="542.75,-127.5 676.5,-127.5"/>
<text text-anchor="middle" x="609.62" y="-110.2" font-family="Times,serif" font-size="14.00" fill="#ffffbf">path: clean/repository</text>
</g>
<!-- architecture/clean/repository/mysql&#45;&gt;architecture/clean/repository -->
<g id="edge6" class="edge">
<title>architecture/clean/repository/mysql&#45;&gt;architecture/clean/repository</title>
<path fill="none" stroke="white" d="M539.43,-205.18C551.6,-191.89 566.93,-175.14 580.16,-160.69"/>
<polygon fill="white" stroke="white" points="582.47,-163.35 586.64,-153.61 577.3,-158.62 582.47,-163.35"/>
<text text-anchor="middle" x="583.62" y="-173.7" font-family="Times,serif" font-size="14.00" fill="white">dep:1</text>
<polyline fill="none" stroke="white" points="598.62,-170.5 568.62,-170.5 572.85,-168.67"/>
</g>
<!-- architecture/clean/entity -->
<g id="node7" class="node">
<title>architecture/clean/entity</title>
<polygon fill="#3288bd" stroke="#e6f598" points="554.75,-0.5 554.75,-49.5 664.5,-49.5 664.5,-0.5 554.75,-0.5"/>
<text text-anchor="middle" x="609.62" y="-32.2" font-family="Times,serif" font-size="14.00" fill="#ffffbf">pkg: entity</text>
<polyline fill="none" stroke="#e6f598" points="554.75,-25 664.5,-25"/>
<text text-anchor="middle" x="609.62" y="-7.7" font-family="Times,serif" font-size="14.00" fill="#ffffbf">path: clean/entity</text>
</g>
<!-- architecture/clean/repository/mysql&#45;&gt;architecture/clean/entity -->
<g id="edge7" class="edge">
<title>architecture/clean/repository/mysql&#45;&gt;architecture/clean/entity</title>
<path fill="none" stroke="white" d="M507.46,-205.2C497.77,-178.65 486.92,-135.15 503.62,-102.5 513.48,-83.23 530.71,-67.7 548.44,-55.8"/>
<polygon fill="white" stroke="white" points="549.88,-59.03 556.45,-50.72 546.13,-53.12 549.88,-59.03"/>
<text text-anchor="middle" x="518.62" y="-122.45" font-family="Times,serif" font-size="14.00" fill="white">dep:1</text>
<polyline fill="none" stroke="white" points="533.62,-119.25 503.62,-119.25 503.63,-102.49"/>
</g>
<!-- architecture/clean/repository&#45;&gt;architecture/clean/entity -->
<g id="edge17" class="edge">
<title>architecture/clean/repository&#45;&gt;architecture/clean/entity</title>
<path fill="none" stroke="white" d="M609.62,-102.68C609.62,-90.38 609.62,-75.13 609.62,-61.47"/>
<polygon fill="white" stroke="white" points="613.13,-61.51 609.63,-51.51 606.13,-61.51 613.13,-61.51"/>
<text text-anchor="middle" x="624.62" y="-71.2" font-family="Times,serif" font-size="14.00" fill="white">dep:1</text>
<polyline fill="none" stroke="white" points="639.62,-68 609.62,-68 609.62,-76.6"/>
</g>
<!-- architecture/onion/presentation -->
<g id="node8" class="node">
<title>architecture/onion/presentation</title>
<polygon fill="#3288bd" stroke="#e6f598" points="231,-308 231,-357 378.25,-357 378.25,-308 231,-308"/>
<text text-anchor="middle" x="304.62" y="-339.7" font-family="Times,serif" font-size="14.00" fill="#ffffbf">pkg: presentation</text>
<polyline fill="none" stroke="#e6f598" points="231,-332.5 378.25,-332.5"/>
<text text-anchor="middle" x="304.62" y="-315.2" font-family="Times,serif" font-size="14.00" fill="#ffffbf">path: onion/presentation</text>
</g>
<!-- architecture/onion/presentation&#45;&gt;architecture/onion/application -->
<g id="edge10" class="edge">
<title>architecture/onion/presentation&#45;&gt;architecture/onion/application</title>
<path fill="none" stroke="white" d="M304.62,-307.68C304.62,-295.38 304.62,-280.13 304.62,-266.47"/>
<polygon fill="white" stroke="white" points="308.13,-266.51 304.63,-256.51 301.13,-266.51 308.13,-266.51"/>
<text text-anchor="middle" x="319.62" y="-276.2" font-family="Times,serif" font-size="14.00" fill="white">dep:1</text>
<polyline fill="none" stroke="white" points="334.62,-273 304.62,-273 304.62,-281.6"/>
</g>
<!-- architecture/onion/presentation&#45;&gt;architecture/onion/domain -->
<g id="edge8" class="edge">
<title>architecture/onion/presentation&#45;&gt;architecture/onion/domain</title>
<path fill="none" stroke="white" d="M340.7,-307.62C357.42,-294.34 375.56,-276.21 384.62,-255 393.36,-234.57 390.12,-226.53 384.62,-205 370.3,-148.89 332.1,-93.01 305.45,-58.98"/>
<polygon fill="white" stroke="white" points="308.19,-56.8 299.22,-51.17 302.72,-61.17 308.19,-56.8"/>
<text text-anchor="middle" x="394.62" y="-173.7" font-family="Times,serif" font-size="14.00" fill="white">dep:1</text>
<polyline fill="none" stroke="white" points="409.62,-170.5 379.62,-170.5 378.43,-184.66"/>
</g>
<!-- architecture/onion/presentation&#45;&gt;architecture/onion/repository -->
<g id="edge9" class="edge">
<title>architecture/onion/presentation&#45;&gt;architecture/onion/repository</title>
<path fill="none" stroke="white" d="M250.42,-307.61C229.06,-295.2 206.76,-277.79 194.62,-255 179.69,-226.97 180.99,-190.24 184.95,-163.59"/>
<polygon fill="white" stroke="white" points="188.36,-164.42 186.58,-153.97 181.46,-163.24 188.36,-164.42"/>
<text text-anchor="middle" x="209.62" y="-224.95" font-family="Times,serif" font-size="14.00" fill="white">dep:1</text>
<polyline fill="none" stroke="white" points="224.62,-221.75 194.62,-221.75 187.21,-236.28"/>
</g>
<!-- architecture/onion -->
<g id="node9" class="node">
<title>architecture/onion</title>
<polygon fill="#3288bd" stroke="#e6f598" points="67.88,-410.5 67.88,-459.5 145.38,-459.5 145.38,-410.5 67.88,-410.5"/>
<text text-anchor="middle" x="106.62" y="-442.2" font-family="Times,serif" font-size="14.00" fill="#ffffbf">pkg: main</text>
<polyline fill="none" stroke="#e6f598" points="67.88,-435 145.38,-435"/>
<text text-anchor="middle" x="106.62" y="-417.7" font-family="Times,serif" font-size="14.00" fill="#ffffbf">path: onion</text>
</g>
<!-- architecture/onion&#45;&gt;architecture/onion/infrastructure/postgresql -->
<g id="edge11" class="edge">
<title>architecture/onion&#45;&gt;architecture/onion/infrastructure/postgresql</title>
<path fill="none" stroke="white" d="M106.62,-410.18C106.62,-397.88 106.62,-382.63 106.62,-368.97"/>
<polygon fill="white" stroke="white" points="110.13,-369.01 106.63,-359.01 103.13,-369.01 110.13,-369.01"/>
<text text-anchor="middle" x="121.62" y="-378.7" font-family="Times,serif" font-size="14.00" fill="white">dep:3</text>
<polyline fill="none" stroke="white" points="136.62,-375.5 106.62,-375.5 106.62,-384.1"/>
</g>
<!-- architecture/onion&#45;&gt;architecture/onion/presentation -->
<g id="edge12" class="edge">
<title>architecture/onion&#45;&gt;architecture/onion/presentation</title>
<path fill="none" stroke="white" d="M145.74,-414.14C174.85,-399.37 215.02,-378.98 247.69,-362.4"/>
<polygon fill="white" stroke="white" points="248.88,-365.72 256.22,-358.07 245.72,-359.48 248.88,-365.72"/>
<text text-anchor="middle" x="232.62" y="-378.7" font-family="Times,serif" font-size="14.00" fill="white">dep:1</text>
<polyline fill="none" stroke="white" points="247.62,-375.5 217.62,-375.5 227.01,-372.9"/>
</g>
<!-- architecture/clean/controller -->
<g id="node10" class="node">
<title>architecture/clean/controller</title>
<polygon fill="#3288bd" stroke="#e6f598" points="816.88,-308 816.88,-357 948.38,-357 948.38,-308 816.88,-308"/>
<text text-anchor="middle" x="882.62" y="-339.7" font-family="Times,serif" font-size="14.00" fill="#ffffbf">pkg: controller</text>
<polyline fill="none" stroke="#e6f598" points="816.88,-332.5 948.38,-332.5"/>
<text text-anchor="middle" x="882.62" y="-315.2" font-family="Times,serif" font-size="14.00" fill="#ffffbf">path: clean/controller</text>
</g>
<!-- architecture/clean/controller&#45;&gt;architecture/clean/repository -->
<g id="edge13" class="edge">
<title>architecture/clean/controller&#45;&gt;architecture/clean/repository</title>
<path fill="none" stroke="white" d="M850.51,-307.62C800.81,-270.66 705.32,-199.66 650.68,-159.03"/>
<polygon fill="white" stroke="white" points="652.95,-156.35 642.84,-153.2 648.77,-161.97 652.95,-156.35"/>
<text text-anchor="middle" x="792.62" y="-224.95" font-family="Times,serif" font-size="14.00" fill="white">dep:1</text>
<polyline fill="none" stroke="white" points="807.62,-221.75 777.62,-221.75 776.04,-252.25"/>
</g>
<!-- architecture/clean/controller/in -->
<g id="node11" class="node">
<title>architecture/clean/controller/in</title>
<polygon fill="#3288bd" stroke="#e6f598" points="930.75,-103 930.75,-152 1076.5,-152 1076.5,-103 930.75,-103"/>
<text text-anchor="middle" x="1003.62" y="-134.7" font-family="Times,serif" font-size="14.00" fill="#ffffbf">pkg: in</text>
<polyline fill="none" stroke="#e6f598" points="930.75,-127.5 1076.5,-127.5"/>
<text text-anchor="middle" x="1003.62" y="-110.2" font-family="Times,serif" font-size="14.00" fill="#ffffbf">path: clean/controller/in</text>
</g>
<!-- architecture/clean/controller&#45;&gt;architecture/clean/controller/in -->
<g id="edge14" class="edge">
<title>architecture/clean/controller&#45;&gt;architecture/clean/controller/in</title>
<path fill="none" stroke="white" d="M907.98,-307.78C922.18,-293.5 939.43,-274.37 951.62,-255 970,-225.81 984.27,-189.02 993.17,-162.65"/>
<polygon fill="white" stroke="white" points="996.38,-164.07 996.18,-153.48 989.73,-161.89 996.38,-164.07"/>
<text text-anchor="middle" x="990.62" y="-224.95" font-family="Times,serif" font-size="14.00" fill="white">dep:2</text>
<polyline fill="none" stroke="white" points="1005.62,-221.75 975.62,-221.75 970.14,-220.67"/>
</g>
<!-- architecture/clean/usecase -->
<g id="node12" class="node">
<title>architecture/clean/usecase</title>
<polygon fill="#3288bd" stroke="#e6f598" points="822.5,-205.5 822.5,-254.5 942.75,-254.5 942.75,-205.5 822.5,-205.5"/>
<text text-anchor="middle" x="882.62" y="-237.2" font-family="Times,serif" font-size="14.00" fill="#ffffbf">pkg: usecase</text>
<polyline fill="none" stroke="#e6f598" points="822.5,-230 942.75,-230"/>
<text text-anchor="middle" x="882.62" y="-212.7" font-family="Times,serif" font-size="14.00" fill="#ffffbf">path: clean/usecase</text>
</g>
<!-- architecture/clean/controller&#45;&gt;architecture/clean/usecase -->
<g id="edge15" class="edge">
<title>architecture/clean/controller&#45;&gt;architecture/clean/usecase</title>
<path fill="none" stroke="white" d="M882.62,-307.68C882.62,-295.38 882.62,-280.13 882.62,-266.47"/>
<polygon fill="white" stroke="white" points="886.13,-266.51 882.63,-256.51 879.13,-266.51 886.13,-266.51"/>
<text text-anchor="middle" x="897.62" y="-276.2" font-family="Times,serif" font-size="14.00" fill="white">dep:2</text>
<polyline fill="none" stroke="white" points="912.62,-273 882.62,-273 882.62,-281.6"/>
</g>
<!-- architecture/clean/usecase&#45;&gt;architecture/clean/repository -->
<g id="edge19" class="edge">
<title>architecture/clean/usecase&#45;&gt;architecture/clean/repository</title>
<path fill="none" stroke="white" d="M822.04,-206.7C781.78,-191.88 728.6,-172.3 685.53,-156.44"/>
<polygon fill="white" stroke="white" points="686.82,-153.19 676.23,-153.02 684.4,-159.76 686.82,-153.19"/>
<text text-anchor="middle" x="776.62" y="-173.7" font-family="Times,serif" font-size="14.00" fill="white">dep:2</text>
<polyline fill="none" stroke="white" points="791.62,-170.5 761.62,-170.5 773.06,-188.67"/>
</g>
<!-- architecture/clean/usecase&#45;&gt;architecture/clean/entity -->
<g id="edge20" class="edge">
<title>architecture/clean/usecase&#45;&gt;architecture/clean/entity</title>
<path fill="none" stroke="white" d="M884.24,-205.31C884.82,-177.23 881.36,-130.7 855.62,-102.5 809.86,-52.36 731.88,-34.78 675.97,-28.78"/>
<polygon fill="white" stroke="white" points="676.55,-25.32 666.26,-27.84 675.88,-32.29 676.55,-25.32"/>
<text text-anchor="middle" x="893.62" y="-122.45" font-family="Times,serif" font-size="14.00" fill="white">dep:1</text>
<polyline fill="none" stroke="white" points="908.62,-119.25 878.62,-119.25 874.25,-134.45"/>
</g>
<!-- architecture/clean/usecase&#45;&gt;architecture/clean/controller/in -->
<g id="edge18" class="edge">
<title>architecture/clean/usecase&#45;&gt;architecture/clean/controller/in</title>
<path fill="none" stroke="white" d="M907.62,-205.03C919.22,-194.19 933.37,-181.39 946.62,-170.5 951.26,-166.7 956.19,-162.82 961.14,-159.03"/>
<polygon fill="white" stroke="white" points="962.92,-162.07 968.81,-153.26 958.72,-156.48 962.92,-162.07"/>
<text text-anchor="middle" x="961.62" y="-173.7" font-family="Times,serif" font-size="14.00" fill="white">dep:2</text>
<polyline fill="none" stroke="white" points="976.62,-170.5 946.62,-170.5 951.5,-166.56"/>
</g>
<!-- architecture/clean/controller/out -->
<g id="node14" class="node">
<title>architecture/clean/controller/out</title>
<polygon fill="#3288bd" stroke="#e6f598" points="694.38,-103 694.38,-152 846.88,-152 846.88,-103 694.38,-103"/>
<text text-anchor="middle" x="770.62" y="-134.7" font-family="Times,serif" font-size="14.00" fill="#ffffbf">pkg: out</text>
<polyline fill="none" stroke="#e6f598" points="694.38,-127.5 846.88,-127.5"/>
<text text-anchor="middle" x="770.62" y="-110.2" font-family="Times,serif" font-size="14.00" fill="#ffffbf">path: clean/controller/out</text>
</g>
<!-- architecture/clean/usecase&#45;&gt;architecture/clean/controller/out -->
<g id="edge21" class="edge">
<title>architecture/clean/usecase&#45;&gt;architecture/clean/controller/out</title>
<path fill="none" stroke="white" d="M856.08,-205.18C840.99,-191.64 821.9,-174.51 805.6,-159.88"/>
<polygon fill="white" stroke="white" points="808.27,-157.58 798.49,-153.51 803.6,-162.79 808.27,-157.58"/>
<text text-anchor="middle" x="847.62" y="-173.7" font-family="Times,serif" font-size="14.00" fill="white">dep:1</text>
<polyline fill="none" stroke="white" points="862.62,-170.5 832.62,-170.5 838.18,-189.12"/>
</g>
<!-- architecture/clean -->
<g id="node13" class="node">
<title>architecture/clean</title>
<polygon fill="#3288bd" stroke="#e6f598" points="845,-410.5 845,-459.5 920.25,-459.5 920.25,-410.5 845,-410.5"/>
<text text-anchor="middle" x="882.62" y="-442.2" font-family="Times,serif" font-size="14.00" fill="#ffffbf">pkg: main</text>
<polyline fill="none" stroke="#e6f598" points="845,-435 920.25,-435"/>
<text text-anchor="middle" x="882.62" y="-417.7" font-family="Times,serif" font-size="14.00" fill="#ffffbf">path: clean</text>
</g>
<!-- architecture/clean&#45;&gt;architecture/clean/controller -->
<g id="edge16" class="edge">
<title>architecture/clean&#45;&gt;architecture/clean/controller</title>
<path fill="none" stroke="white" d="M882.62,-410.18C882.62,-397.88 882.62,-382.63 882.62,-368.97"/>
<polygon fill="white" stroke="white" points="886.13,-369.01 882.63,-359.01 879.13,-369.01 886.13,-369.01"/>
<text text-anchor="middle" x="897.62" y="-378.7" font-family="Times,serif" font-size="14.00" fill="white">dep:6</text>
<polyline fill="none" stroke="white" points="912.62,-375.5 882.62,-375.5 882.62,-384.1"/>
</g>
</g>
</svg>
