<?xml version="1.0" encoding="UTF-8" standalone="no"?>
<!DOCTYPE svg PUBLIC "-//W3C//DTD SVG 1.1//EN"
 "http://www.w3.org/Graphics/SVG/1.1/DTD/svg11.dtd">
<!-- Generated by graphviz version 11.0.0 (20240428.1522)
 -->
<!-- Title: d Pages: 1 -->
<svg width="424pt" height="569pt"
 viewBox="36.00 36.00 388.38 533.00" xmlns="http://www.w3.org/2000/svg" xmlns:xlink="http://www.w3.org/1999/xlink">
<g id="graph0" class="graph" transform="scale(1 1) rotate(0) translate(40 529)">
<title>d</title>
<polygon fill="#343434" stroke="none" points="-4,4 -4,-493 348.38,-493 348.38,4 -4,4"/>
<text text-anchor="middle" x="172.19" y="-467.9" font-family="Times,serif" font-size="18.00" fill="white">package relation</text>
<!-- onion&#45;architecture -->
<g id="node1" class="node">
<title>onion&#45;architecture</title>
<polygon fill="#3288bd" stroke="#e6f598" points="53.62,-410.5 53.62,-459.5 125.12,-459.5 125.12,-410.5 53.62,-410.5"/>
<text text-anchor="middle" x="89.38" y="-442.2" font-family="Times,serif" font-size="14.00" fill="#ffffbf">pkg: main</text>
<polyline fill="none" stroke="#e6f598" points="53.62,-435 125.12,-435"/>
<text text-anchor="middle" x="89.38" y="-417.7" font-family="Times,serif" font-size="14.00" fill="#ffffbf">path: .</text>
</g>
<!-- onion&#45;architecture/infrastructure/postgresql -->
<g id="node2" class="node">
<title>onion&#45;architecture/infrastructure/postgresql</title>
<polygon fill="#3288bd" stroke="#e6f598" points="0,-308 0,-357 178.75,-357 178.75,-308 0,-308"/>
<text text-anchor="middle" x="89.38" y="-339.7" font-family="Times,serif" font-size="14.00" fill="#ffffbf">pkg: postgresql</text>
<polyline fill="none" stroke="#e6f598" points="0,-332.5 178.75,-332.5"/>
<text text-anchor="middle" x="89.38" y="-315.2" font-family="Times,serif" font-size="14.00" fill="#ffffbf">path: infrastructure/postgresql</text>
</g>
<!-- onion&#45;architecture&#45;&gt;onion&#45;architecture/infrastructure/postgresql -->
<g id="edge1" class="edge">
<title>onion&#45;architecture&#45;&gt;onion&#45;architecture/infrastructure/postgresql</title>
<path fill="none" stroke="white" d="M89.38,-410.18C89.38,-397.88 89.38,-382.63 89.38,-368.97"/>
<polygon fill="white" stroke="white" points="92.88,-369.01 89.38,-359.01 85.88,-369.01 92.88,-369.01"/>
<text text-anchor="middle" x="104.38" y="-378.7" font-family="Times,serif" font-size="14.00" fill="white">dep:3</text>
<polyline fill="none" stroke="white" points="119.38,-375.5 89.38,-375.5 89.38,-384.1"/>
</g>
<!-- onion&#45;architecture/presentation -->
<g id="node3" class="node">
<title>onion&#45;architecture/presentation</title>
<polygon fill="#3288bd" stroke="#e6f598" points="198,-308 198,-357 310.75,-357 310.75,-308 198,-308"/>
<text text-anchor="middle" x="254.38" y="-339.7" font-family="Times,serif" font-size="14.00" fill="#ffffbf">pkg: presentation</text>
<polyline fill="none" stroke="#e6f598" points="198,-332.5 310.75,-332.5"/>
<text text-anchor="middle" x="254.38" y="-315.2" font-family="Times,serif" font-size="14.00" fill="#ffffbf">path: presentation</text>
</g>
<!-- onion&#45;architecture&#45;&gt;onion&#45;architecture/presentation -->
<g id="edge2" class="edge">
<title>onion&#45;architecture&#45;&gt;onion&#45;architecture/presentation</title>
<path fill="none" stroke="white" d="M125.58,-411.94C149.05,-397.65 179.91,-378.85 205.54,-363.25"/>
<polygon fill="white" stroke="white" points="207.07,-366.41 213.79,-358.22 203.42,-360.44 207.07,-366.41"/>
<text text-anchor="middle" x="196.38" y="-378.7" font-family="Times,serif" font-size="14.00" fill="white">dep:1</text>
<polyline fill="none" stroke="white" points="211.38,-375.5 181.38,-375.5 190.02,-372.7"/>
</g>
<!-- onion&#45;architecture/repository -->
<g id="node4" class="node">
<title>onion&#45;architecture/repository</title>
<polygon fill="#3288bd" stroke="#e6f598" points="111.62,-103 111.62,-152 213.12,-152 213.12,-103 111.62,-103"/>
<text text-anchor="middle" x="162.38" y="-134.7" font-family="Times,serif" font-size="14.00" fill="#ffffbf">pkg: repository</text>
<polyline fill="none" stroke="#e6f598" points="111.62,-127.5 213.12,-127.5"/>
<text text-anchor="middle" x="162.38" y="-110.2" font-family="Times,serif" font-size="14.00" fill="#ffffbf">path: repository</text>
</g>
<!-- onion&#45;architecture/infrastructure/postgresql&#45;&gt;onion&#45;architecture/repository -->
<g id="edge10" class="edge">
<title>onion&#45;architecture/infrastructure/postgresql&#45;&gt;onion&#45;architecture/repository</title>
<path fill="none" stroke="white" d="M88.25,-307.73C87.86,-281.59 89.73,-238.81 103.38,-205 109.8,-189.08 120.52,-173.66 131.08,-160.88"/>
<polygon fill="white" stroke="white" points="133.44,-163.5 137.32,-153.63 128.14,-158.93 133.44,-163.5"/>
<text text-anchor="middle" x="118.38" y="-224.95" font-family="Times,serif" font-size="14.00" fill="white">dep:1</text>
<polyline fill="none" stroke="white" points="133.38,-221.75 103.38,-221.75 103.38,-204.99"/>
</g>
<!-- onion&#45;architecture/domain -->
<g id="node6" class="node">
<title>onion&#45;architecture/domain</title>
<polygon fill="#3288bd" stroke="#e6f598" points="188.38,-0.5 188.38,-49.5 276.38,-49.5 276.38,-0.5 188.38,-0.5"/>
<text text-anchor="middle" x="232.38" y="-32.2" font-family="Times,serif" font-size="14.00" fill="#ffffbf">pkg: domain</text>
<polyline fill="none" stroke="#e6f598" points="188.38,-25 276.38,-25"/>
<text text-anchor="middle" x="232.38" y="-7.7" font-family="Times,serif" font-size="14.00" fill="#ffffbf">path: domain</text>
</g>
<!-- onion&#45;architecture/infrastructure/postgresql&#45;&gt;onion&#45;architecture/domain -->
<g id="edge9" class="edge">
<title>onion&#45;architecture/infrastructure/postgresql&#45;&gt;onion&#45;architecture/domain</title>
<path fill="none" stroke="white" d="M82.54,-307.56C71.13,-262.01 53.9,-162.14 102.38,-102.5 122.13,-78.19 151.81,-59.9 177.82,-47.3"/>
<polygon fill="white" stroke="white" points="179,-50.62 186.59,-43.23 176.04,-44.27 179,-50.62"/>
<text text-anchor="middle" x="88.38" y="-173.7" font-family="Times,serif" font-size="14.00" fill="white">dep:1</text>
<polyline fill="none" stroke="white" points="103.38,-170.5 73.38,-170.5 72.44,-176.66"/>
</g>
<!-- onion&#45;architecture/presentation&#45;&gt;onion&#45;architecture/repository -->
<g id="edge3" class="edge">
<title>onion&#45;architecture/presentation&#45;&gt;onion&#45;architecture/repository</title>
<path fill="none" stroke="white" d="M212.65,-307.52C194.3,-294.54 174.62,-276.7 164.38,-255 150.88,-226.41 151.93,-189.97 155.43,-163.55"/>
<polygon fill="white" stroke="white" points="158.89,-164.1 156.94,-153.68 151.97,-163.04 158.89,-164.1"/>
<text text-anchor="middle" x="179.38" y="-224.95" font-family="Times,serif" font-size="14.00" fill="white">dep:1</text>
<polyline fill="none" stroke="white" points="194.38,-221.75 164.38,-221.75 157.57,-235.66"/>
</g>
<!-- onion&#45;architecture/application -->
<g id="node5" class="node">
<title>onion&#45;architecture/application</title>
<polygon fill="#3288bd" stroke="#e6f598" points="203,-205.5 203,-254.5 309.75,-254.5 309.75,-205.5 203,-205.5"/>
<text text-anchor="middle" x="256.38" y="-237.2" font-family="Times,serif" font-size="14.00" fill="#ffffbf">pkg: application</text>
<polyline fill="none" stroke="#e6f598" points="203,-230 309.75,-230"/>
<text text-anchor="middle" x="256.38" y="-212.7" font-family="Times,serif" font-size="14.00" fill="#ffffbf">path: application</text>
</g>
<!-- onion&#45;architecture/presentation&#45;&gt;onion&#45;architecture/application -->
<g id="edge4" class="edge">
<title>onion&#45;architecture/presentation&#45;&gt;onion&#45;architecture/application</title>
<path fill="none" stroke="white" d="M254.85,-307.68C255.09,-295.38 255.4,-280.13 255.67,-266.47"/>
<polygon fill="white" stroke="white" points="259.17,-266.58 255.87,-256.51 252.17,-266.44 259.17,-266.58"/>
<text text-anchor="middle" x="270.38" y="-276.2" font-family="Times,serif" font-size="14.00" fill="white">dep:1</text>
<polyline fill="none" stroke="white" points="285.38,-273 255.38,-273 255.38,-280.93"/>
</g>
<!-- onion&#45;architecture/presentation&#45;&gt;onion&#45;architecture/domain -->
<g id="edge5" class="edge">
<title>onion&#45;architecture/presentation&#45;&gt;onion&#45;architecture/domain</title>
<path fill="none" stroke="white" d="M282.03,-307.56C295.8,-293.76 311.05,-275.18 318.38,-255 325.96,-234.11 322.3,-226.87 318.38,-205 309.8,-157.18 301.84,-146.08 280.38,-102.5 273.14,-87.82 263.83,-72.39 255.33,-59.26"/>
<polygon fill="white" stroke="white" points="258.3,-57.41 249.87,-50.99 252.46,-61.26 258.3,-57.41"/>
<text text-anchor="middle" x="329.38" y="-173.7" font-family="Times,serif" font-size="14.00" fill="white">dep:1</text>
<polyline fill="none" stroke="white" points="344.38,-170.5 314.38,-170.5 313.73,-182.38"/>
</g>
<!-- onion&#45;architecture/repository&#45;&gt;onion&#45;architecture/domain -->
<g id="edge6" class="edge">
<title>onion&#45;architecture/repository&#45;&gt;onion&#45;architecture/domain</title>
<path fill="none" stroke="white" d="M178.96,-102.68C187.96,-89.76 199.24,-73.58 209.1,-59.41"/>
<polygon fill="white" stroke="white" points="211.95,-61.44 214.8,-51.24 206.21,-57.44 211.95,-61.44"/>
<text text-anchor="middle" x="216.38" y="-71.2" font-family="Times,serif" font-size="14.00" fill="white">dep:1</text>
<polyline fill="none" stroke="white" points="231.38,-68 201.38,-68 203.67,-67.21"/>
</g>
<!-- onion&#45;architecture/application&#45;&gt;onion&#45;architecture/repository -->
<g id="edge8" class="edge">
<title>onion&#45;architecture/application&#45;&gt;onion&#45;architecture/repository</title>
<path fill="none" stroke="white" d="M228.33,-205.3C221.91,-199.51 215.25,-193.19 209.38,-187 201.72,-178.93 193.95,-169.74 186.98,-161.08"/>
<polygon fill="white" stroke="white" points="189.94,-159.17 181,-153.49 184.44,-163.51 189.94,-159.17"/>
<text text-anchor="middle" x="224.38" y="-173.7" font-family="Times,serif" font-size="14.00" fill="white">dep:1</text>
<polyline fill="none" stroke="white" points="239.38,-170.5 209.38,-170.5 212.47,-190.2"/>
</g>
<!-- onion&#45;architecture/application&#45;&gt;onion&#45;architecture/domain -->
<g id="edge7" class="edge">
<title>onion&#45;architecture/application&#45;&gt;onion&#45;architecture/domain</title>
<path fill="none" stroke="white" d="M253.57,-205.32C249.38,-169.81 241.43,-102.55 236.54,-61.26"/>
<polygon fill="white" stroke="white" points="240.02,-60.87 235.37,-51.35 233.07,-61.69 240.02,-60.87"/>
<text text-anchor="middle" x="261.38" y="-122.45" font-family="Times,serif" font-size="14.00" fill="white">dep:1</text>
<polyline fill="none" stroke="white" points="276.38,-119.25 246.38,-119.25 244.66,-129.88"/>
</g>
</g>
</svg>
