<?xml version="1.0" encoding="UTF-8" standalone="no"?>
<!DOCTYPE svg PUBLIC "-//W3C//DTD SVG 1.1//EN"
 "http://www.w3.org/Graphics/SVG/1.1/DTD/svg11.dtd">
<!-- Generated by graphviz version 11.0.0 (20240428.1522)
 -->
<!-- Title: d Pages: 1 -->
<svg width="728pt" height="569pt"
 viewBox="36.00 36.00 692.12 533.00" xmlns="http://www.w3.org/2000/svg" xmlns:xlink="http://www.w3.org/1999/xlink">
<g id="graph0" class="graph" transform="scale(1 1) rotate(0) translate(40 529)">
<title>d</title>
<polygon fill="#343434" stroke="none" points="-4,4 -4,-493 652.12,-493 652.12,4 -4,4"/>
<text text-anchor="middle" x="324.06" y="-467.9" font-family="Times,serif" font-size="18.00" fill="white">package relation</text>
<!-- onion&#45;architecture/repository -->
<g id="node1" class="node">
<title>onion&#45;architecture/repository</title>
<polygon fill="#3288bd" stroke="#e6f598" points="86.62,-103 86.62,-152 188.12,-152 188.12,-103 86.62,-103"/>
<text text-anchor="middle" x="137.38" y="-134.7" font-family="Times,serif" font-size="14.00" fill="#ffffbf">pkg: repository</text>
<polyline fill="none" stroke="#e6f598" points="86.62,-127.5 188.12,-127.5"/>
<text text-anchor="middle" x="137.38" y="-110.2" font-family="Times,serif" font-size="14.00" fill="#ffffbf">path: repository</text>
</g>
<!-- onion&#45;architecture/domain -->
<g id="node2" class="node">
<title>onion&#45;architecture/domain</title>
<polygon fill="#3288bd" stroke="#e6f598" points="172.38,-0.5 172.38,-49.5 260.38,-49.5 260.38,-0.5 172.38,-0.5"/>
<text text-anchor="middle" x="216.38" y="-32.2" font-family="Times,serif" font-size="14.00" fill="#ffffbf">pkg: domain</text>
<polyline fill="none" stroke="#e6f598" points="172.38,-25 260.38,-25"/>
<text text-anchor="middle" x="216.38" y="-7.7" font-family="Times,serif" font-size="14.00" fill="#ffffbf">path: domain</text>
</g>
<!-- onion&#45;architecture/repository&#45;&gt;onion&#45;architecture/domain -->
<g id="edge1" class="edge">
<title>onion&#45;architecture/repository&#45;&gt;onion&#45;architecture/domain</title>
<path fill="none" stroke="white" d="M149.64,-102.77C155.82,-91.74 163.81,-78.73 172.38,-68 175.11,-64.57 178.12,-61.15 181.24,-57.82"/>
<polygon fill="white" stroke="white" points="183.56,-60.46 188.07,-50.87 178.57,-55.55 183.56,-60.46"/>
<text text-anchor="middle" x="187.38" y="-71.2" font-family="Times,serif" font-size="14.00" fill="white">dep:1</text>
<polyline fill="none" stroke="white" points="202.38,-68 172.38,-68 174.48,-65.43"/>
</g>
<!-- onion&#45;architecture/application -->
<g id="node3" class="node">
<title>onion&#45;architecture/application</title>
<polygon fill="#3288bd" stroke="#e6f598" points="273,-205.5 273,-254.5 379.75,-254.5 379.75,-205.5 273,-205.5"/>
<text text-anchor="middle" x="326.38" y="-237.2" font-family="Times,serif" font-size="14.00" fill="#ffffbf">pkg: application</text>
<polyline fill="none" stroke="#e6f598" points="273,-230 379.75,-230"/>
<text text-anchor="middle" x="326.38" y="-212.7" font-family="Times,serif" font-size="14.00" fill="#ffffbf">path: application</text>
</g>
<!-- onion&#45;architecture/application&#45;&gt;onion&#45;architecture/repository -->
<g id="edge4" class="edge">
<title>onion&#45;architecture/application&#45;&gt;onion&#45;architecture/repository</title>
<path fill="none" stroke="white" d="M299.2,-205.25C285.04,-193.7 267.01,-180.23 249.38,-170.5 233.71,-161.86 215.91,-154.28 199.18,-148.02"/>
<polygon fill="white" stroke="white" points="200.4,-144.74 189.8,-144.62 198.01,-151.32 200.4,-144.74"/>
<text text-anchor="middle" x="288.38" y="-173.7" font-family="Times,serif" font-size="14.00" fill="white">dep:1</text>
<polyline fill="none" stroke="white" points="303.38,-170.5 273.38,-170.5 279.92,-190.32"/>
</g>
<!-- onion&#45;architecture/application&#45;&gt;onion&#45;architecture/domain -->
<g id="edge3" class="edge">
<title>onion&#45;architecture/application&#45;&gt;onion&#45;architecture/domain</title>
<path fill="none" stroke="white" d="M368.71,-205.19C387.3,-192.25 407.18,-174.39 417.38,-152.5 426.76,-132.36 429.99,-120.8 417.38,-102.5 384.97,-55.5 319.58,-37.35 272.16,-30.36"/>
<polygon fill="white" stroke="white" points="272.7,-26.9 262.32,-29.05 271.77,-33.84 272.7,-26.9"/>
<text text-anchor="middle" x="440.38" y="-122.45" font-family="Times,serif" font-size="14.00" fill="white">dep:2</text>
<polyline fill="none" stroke="white" points="455.38,-119.25 425.38,-119.25 425.62,-126.81"/>
</g>
<!-- onion&#45;architecture/presentation/request -->
<g id="node4" class="node">
<title>onion&#45;architecture/presentation/request</title>
<polygon fill="#3288bd" stroke="#e6f598" points="492.62,-103 492.62,-152 648.12,-152 648.12,-103 492.62,-103"/>
<text text-anchor="middle" x="570.38" y="-134.7" font-family="Times,serif" font-size="14.00" fill="#ffffbf">pkg: request</text>
<polyline fill="none" stroke="#e6f598" points="492.62,-127.5 648.12,-127.5"/>
<text text-anchor="middle" x="570.38" y="-110.2" font-family="Times,serif" font-size="14.00" fill="#ffffbf">path: presentation/request</text>
</g>
<!-- onion&#45;architecture/application&#45;&gt;onion&#45;architecture/presentation/request -->
<g id="edge2" class="edge">
<title>onion&#45;architecture/application&#45;&gt;onion&#45;architecture/presentation/request</title>
<path fill="none" stroke="white" d="M380.12,-214.2C404.38,-206.94 433.18,-197.5 458.38,-187 478.54,-178.6 499.96,-167.89 518.61,-157.93"/>
<polygon fill="white" stroke="white" points="520.19,-161.05 527.33,-153.21 516.86,-154.89 520.19,-161.05"/>
<text text-anchor="middle" x="507.38" y="-173.7" font-family="Times,serif" font-size="14.00" fill="white">dep:1</text>
<polyline fill="none" stroke="white" points="522.38,-170.5 492.38,-170.5 501.37,-166.92"/>
</g>
<!-- onion&#45;architecture/presentation/response -->
<g id="node5" class="node">
<title>onion&#45;architecture/presentation/response</title>
<polygon fill="#3288bd" stroke="#e6f598" points="244.5,-103 244.5,-152 408.25,-152 408.25,-103 244.5,-103"/>
<text text-anchor="middle" x="326.38" y="-134.7" font-family="Times,serif" font-size="14.00" fill="#ffffbf">pkg: response</text>
<polyline fill="none" stroke="#e6f598" points="244.5,-127.5 408.25,-127.5"/>
<text text-anchor="middle" x="326.38" y="-110.2" font-family="Times,serif" font-size="14.00" fill="#ffffbf">path: presentation/response</text>
</g>
<!-- onion&#45;architecture/application&#45;&gt;onion&#45;architecture/presentation/response -->
<g id="edge5" class="edge">
<title>onion&#45;architecture/application&#45;&gt;onion&#45;architecture/presentation/response</title>
<path fill="none" stroke="white" d="M326.38,-205.18C326.38,-192.88 326.38,-177.63 326.38,-163.97"/>
<polygon fill="white" stroke="white" points="329.88,-164.01 326.38,-154.01 322.88,-164.01 329.88,-164.01"/>
<text text-anchor="middle" x="341.38" y="-173.7" font-family="Times,serif" font-size="14.00" fill="white">dep:2</text>
<polyline fill="none" stroke="white" points="356.38,-170.5 326.38,-170.5 326.38,-179.1"/>
</g>
<!-- onion&#45;architecture/infrastructure/postgresql -->
<g id="node6" class="node">
<title>onion&#45;architecture/infrastructure/postgresql</title>
<polygon fill="#3288bd" stroke="#e6f598" points="0,-308 0,-357 178.75,-357 178.75,-308 0,-308"/>
<text text-anchor="middle" x="89.38" y="-339.7" font-family="Times,serif" font-size="14.00" fill="#ffffbf">pkg: postgresql</text>
<polyline fill="none" stroke="#e6f598" points="0,-332.5 178.75,-332.5"/>
<text text-anchor="middle" x="89.38" y="-315.2" font-family="Times,serif" font-size="14.00" fill="#ffffbf">path: infrastructure/postgresql</text>
</g>
<!-- onion&#45;architecture/infrastructure/postgresql&#45;&gt;onion&#45;architecture/repository -->
<g id="edge6" class="edge">
<title>onion&#45;architecture/infrastructure/postgresql&#45;&gt;onion&#45;architecture/repository</title>
<path fill="none" stroke="white" d="M90.77,-307.84C92.7,-282.16 97.06,-240.13 106.38,-205 110.14,-190.82 115.84,-175.76 121.34,-162.78"/>
<polygon fill="white" stroke="white" points="124.46,-164.38 125.26,-153.81 118.05,-161.58 124.46,-164.38"/>
<text text-anchor="middle" x="121.38" y="-224.95" font-family="Times,serif" font-size="14.00" fill="white">dep:1</text>
<polyline fill="none" stroke="white" points="136.38,-221.75 106.38,-221.75 101.46,-226.2"/>
</g>
<!-- onion&#45;architecture/infrastructure/postgresql&#45;&gt;onion&#45;architecture/domain -->
<g id="edge7" class="edge">
<title>onion&#45;architecture/infrastructure/postgresql&#45;&gt;onion&#45;architecture/domain</title>
<path fill="none" stroke="white" d="M80.09,-307.71C64.54,-263.71 38.58,-168.13 77.38,-102.5 95.55,-71.74 131,-52.51 161.54,-41.03"/>
<polygon fill="white" stroke="white" points="162.42,-44.43 170.68,-37.79 160.08,-37.83 162.42,-44.43"/>
<text text-anchor="middle" x="73.38" y="-173.7" font-family="Times,serif" font-size="14.00" fill="white">dep:1</text>
<polyline fill="none" stroke="white" points="88.38,-170.5 58.38,-170.5 57.24,-178.39"/>
</g>
<!-- onion&#45;architecture -->
<g id="node7" class="node">
<title>onion&#45;architecture</title>
<polygon fill="#3288bd" stroke="#e6f598" points="53.62,-410.5 53.62,-459.5 125.12,-459.5 125.12,-410.5 53.62,-410.5"/>
<text text-anchor="middle" x="89.38" y="-442.2" font-family="Times,serif" font-size="14.00" fill="#ffffbf">pkg: main</text>
<polyline fill="none" stroke="#e6f598" points="53.62,-435 125.12,-435"/>
<text text-anchor="middle" x="89.38" y="-417.7" font-family="Times,serif" font-size="14.00" fill="#ffffbf">path: .</text>
</g>
<!-- onion&#45;architecture&#45;&gt;onion&#45;architecture/infrastructure/postgresql -->
<g id="edge8" class="edge">
<title>onion&#45;architecture&#45;&gt;onion&#45;architecture/infrastructure/postgresql</title>
<path fill="none" stroke="white" d="M89.38,-410.18C89.38,-397.88 89.38,-382.63 89.38,-368.97"/>
<polygon fill="white" stroke="white" points="92.88,-369.01 89.38,-359.01 85.88,-369.01 92.88,-369.01"/>
<text text-anchor="middle" x="104.38" y="-378.7" font-family="Times,serif" font-size="14.00" fill="white">dep:3</text>
<polyline fill="none" stroke="white" points="119.38,-375.5 89.38,-375.5 89.38,-384.1"/>
</g>
<!-- onion&#45;architecture/presentation -->
<g id="node8" class="node">
<title>onion&#45;architecture/presentation</title>
<polygon fill="#3288bd" stroke="#e6f598" points="197,-308 197,-357 309.75,-357 309.75,-308 197,-308"/>
<text text-anchor="middle" x="253.38" y="-339.7" font-family="Times,serif" font-size="14.00" fill="#ffffbf">pkg: presentation</text>
<polyline fill="none" stroke="#e6f598" points="197,-332.5 309.75,-332.5"/>
<text text-anchor="middle" x="253.38" y="-315.2" font-family="Times,serif" font-size="14.00" fill="#ffffbf">path: presentation</text>
</g>
<!-- onion&#45;architecture&#45;&gt;onion&#45;architecture/presentation -->
<g id="edge9" class="edge">
<title>onion&#45;architecture&#45;&gt;onion&#45;architecture/presentation</title>
<path fill="none" stroke="white" d="M125.37,-411.94C148.69,-397.65 179.36,-378.85 204.84,-363.25"/>
<polygon fill="white" stroke="white" points="206.33,-366.44 213.03,-358.23 202.67,-360.47 206.33,-366.44"/>
<text text-anchor="middle" x="195.38" y="-378.7" font-family="Times,serif" font-size="14.00" fill="white">dep:1</text>
<polyline fill="none" stroke="white" points="210.38,-375.5 180.38,-375.5 188.77,-373.09"/>
</g>
<!-- onion&#45;architecture/presentation&#45;&gt;onion&#45;architecture/repository -->
<g id="edge13" class="edge">
<title>onion&#45;architecture/presentation&#45;&gt;onion&#45;architecture/repository</title>
<path fill="none" stroke="white" d="M219.21,-307.65C202.46,-294.14 183.54,-275.79 172.38,-255 156.86,-226.1 147.72,-189.7 142.7,-163.38"/>
<polygon fill="white" stroke="white" points="146.15,-162.77 140.94,-153.54 139.26,-164.01 146.15,-162.77"/>
<text text-anchor="middle" x="187.38" y="-224.95" font-family="Times,serif" font-size="14.00" fill="white">dep:1</text>
<polyline fill="none" stroke="white" points="202.38,-221.75 172.38,-221.75 165.08,-239.89"/>
</g>
<!-- onion&#45;architecture/presentation&#45;&gt;onion&#45;architecture/domain -->
<g id="edge12" class="edge">
<title>onion&#45;architecture/presentation&#45;&gt;onion&#45;architecture/domain</title>
<path fill="none" stroke="white" d="M245.06,-307.59C235.67,-279.23 220.98,-230.35 215.38,-187 209.8,-143.92 211.37,-93.81 213.45,-61.08"/>
<polygon fill="white" stroke="white" points="216.93,-61.58 214.13,-51.37 209.94,-61.1 216.93,-61.58"/>
<text text-anchor="middle" x="230.38" y="-173.7" font-family="Times,serif" font-size="14.00" fill="white">dep:1</text>
<polyline fill="none" stroke="white" points="245.38,-170.5 215.38,-170.5 214.58,-180.39"/>
</g>
<!-- onion&#45;architecture/presentation&#45;&gt;onion&#45;architecture/application -->
<g id="edge10" class="edge">
<title>onion&#45;architecture/presentation&#45;&gt;onion&#45;architecture/application</title>
<path fill="none" stroke="white" d="M270.67,-307.68C280.15,-294.64 292.04,-278.27 302.4,-264.01"/>
<polygon fill="white" stroke="white" points="305.01,-266.37 308.06,-256.22 299.35,-262.25 305.01,-266.37"/>
<text text-anchor="middle" x="308.38" y="-276.2" font-family="Times,serif" font-size="14.00" fill="white">dep:1</text>
<polyline fill="none" stroke="white" points="323.38,-273 293.38,-273 296.19,-272.56"/>
</g>
<!-- onion&#45;architecture/presentation&#45;&gt;onion&#45;architecture/presentation/request -->
<g id="edge11" class="edge">
<title>onion&#45;architecture/presentation&#45;&gt;onion&#45;architecture/presentation/request</title>
<path fill="none" stroke="white" d="M310.04,-310.17C368.52,-286.28 460.29,-243.39 526.38,-187 534.91,-179.71 542.8,-170.49 549.46,-161.54"/>
<polygon fill="white" stroke="white" points="552.14,-163.81 555.07,-153.63 546.43,-159.77 552.14,-163.81"/>
<text text-anchor="middle" x="515.38" y="-224.95" font-family="Times,serif" font-size="14.00" fill="white">dep:1</text>
<polyline fill="none" stroke="white" points="530.38,-221.75 500.38,-221.75 526.38,-187"/>
</g>
</g>
</svg>
