<?xml version="1.0" encoding="UTF-8" standalone="no"?>
<!DOCTYPE svg PUBLIC "-//W3C//DTD SVG 1.1//EN"
 "http://www.w3.org/Graphics/SVG/1.1/DTD/svg11.dtd">
<!-- Generated by graphviz version 11.0.0 (20240428.1522)
 -->
<!-- Title: d Pages: 1 -->
<svg width="671pt" height="569pt"
 viewBox="36.00 36.00 635.38 533.00" xmlns="http://www.w3.org/2000/svg" xmlns:xlink="http://www.w3.org/1999/xlink">
<g id="graph0" class="graph" transform="scale(1 1) rotate(0) translate(40 529)">
<title>d</title>
<polygon fill="#343434" stroke="none" points="-4,4 -4,-493 595.38,-493 595.38,4 -4,4"/>
<text text-anchor="middle" x="295.69" y="-467.9" font-family="Times,serif" font-size="18.00" fill="white">package relation</text>
<!-- onion&#45;architecture/infrastructure/postgresql -->
<g id="node1" class="node">
<title>onion&#45;architecture/infrastructure/postgresql</title>
<polygon fill="#3288bd" stroke="#e6f598" points="0,-308 0,-357 178.75,-357 178.75,-308 0,-308"/>
<text text-anchor="middle" x="89.38" y="-339.7" font-family="Times,serif" font-size="14.00" fill="#ffffbf">pkg: postgresql</text>
<polyline fill="none" stroke="#e6f598" points="0,-332.5 178.75,-332.5"/>
<text text-anchor="middle" x="89.38" y="-315.2" font-family="Times,serif" font-size="14.00" fill="#ffffbf">path: infrastructure/postgresql</text>
</g>
<!-- onion&#45;architecture/domain -->
<g id="node2" class="node">
<title>onion&#45;architecture/domain</title>
<polygon fill="#3288bd" stroke="#e6f598" points="315.38,-0.5 315.38,-49.5 403.38,-49.5 403.38,-0.5 315.38,-0.5"/>
<text text-anchor="middle" x="359.38" y="-32.2" font-family="Times,serif" font-size="14.00" fill="#ffffbf">pkg: domain</text>
<polyline fill="none" stroke="#e6f598" points="315.38,-25 403.38,-25"/>
<text text-anchor="middle" x="359.38" y="-7.7" font-family="Times,serif" font-size="14.00" fill="#ffffbf">path: domain</text>
</g>
<!-- onion&#45;architecture/infrastructure/postgresql&#45;&gt;onion&#45;architecture/domain -->
<g id="edge1" class="edge">
<title>onion&#45;architecture/infrastructure/postgresql&#45;&gt;onion&#45;architecture/domain</title>
<path fill="none" stroke="white" d="M71.21,-307.64C39.35,-262.69 -18.77,-164.39 30.38,-102.5 63.93,-60.24 219.28,-39.21 303.96,-30.72"/>
<polygon fill="white" stroke="white" points="304.05,-34.23 313.66,-29.77 303.37,-27.26 304.05,-34.23"/>
<text text-anchor="middle" x="29.38" y="-173.7" font-family="Times,serif" font-size="14.00" fill="white">dep:1</text>
<polyline fill="none" stroke="white" points="44.38,-170.5 14.38,-170.5 13.08,-181.41"/>
</g>
<!-- onion&#45;architecture/repository -->
<g id="node3" class="node">
<title>onion&#45;architecture/repository</title>
<polygon fill="#3288bd" stroke="#e6f598" points="39.62,-103 39.62,-152 141.12,-152 141.12,-103 39.62,-103"/>
<text text-anchor="middle" x="90.38" y="-134.7" font-family="Times,serif" font-size="14.00" fill="#ffffbf">pkg: repository</text>
<polyline fill="none" stroke="#e6f598" points="39.62,-127.5 141.12,-127.5"/>
<text text-anchor="middle" x="90.38" y="-110.2" font-family="Times,serif" font-size="14.00" fill="#ffffbf">path: repository</text>
</g>
<!-- onion&#45;architecture/infrastructure/postgresql&#45;&gt;onion&#45;architecture/repository -->
<g id="edge2" class="edge">
<title>onion&#45;architecture/infrastructure/postgresql&#45;&gt;onion&#45;architecture/repository</title>
<path fill="none" stroke="white" d="M89.49,-307.82C89.67,-272.31 90,-205.05 90.2,-163.76"/>
<polygon fill="white" stroke="white" points="93.7,-163.88 90.25,-153.86 86.7,-163.84 93.7,-163.88"/>
<text text-anchor="middle" x="104.38" y="-224.95" font-family="Times,serif" font-size="14.00" fill="white">dep:1</text>
<polyline fill="none" stroke="white" points="119.38,-221.75 89.38,-221.75 89.88,-229.89"/>
</g>
<!-- onion&#45;architecture/repository&#45;&gt;onion&#45;architecture/domain -->
<g id="edge9" class="edge">
<title>onion&#45;architecture/repository&#45;&gt;onion&#45;architecture/domain</title>
<path fill="none" stroke="white" d="M141.4,-105.97C144.43,-104.79 147.44,-103.62 150.38,-102.5 202.49,-82.54 262.32,-60.76 304.58,-45.56"/>
<polygon fill="white" stroke="white" points="305.55,-48.93 313.77,-42.25 303.18,-42.34 305.55,-48.93"/>
<text text-anchor="middle" x="256.38" y="-71.2" font-family="Times,serif" font-size="14.00" fill="white">dep:1</text>
<polyline fill="none" stroke="white" points="271.38,-68 241.38,-68 252.17,-64.55"/>
</g>
<!-- onion&#45;architecture -->
<g id="node4" class="node">
<title>onion&#45;architecture</title>
<polygon fill="#3288bd" stroke="#e6f598" points="53.62,-410.5 53.62,-459.5 125.12,-459.5 125.12,-410.5 53.62,-410.5"/>
<text text-anchor="middle" x="89.38" y="-442.2" font-family="Times,serif" font-size="14.00" fill="#ffffbf">pkg: main</text>
<polyline fill="none" stroke="#e6f598" points="53.62,-435 125.12,-435"/>
<text text-anchor="middle" x="89.38" y="-417.7" font-family="Times,serif" font-size="14.00" fill="#ffffbf">path: .</text>
</g>
<!-- onion&#45;architecture&#45;&gt;onion&#45;architecture/infrastructure/postgresql -->
<g id="edge3" class="edge">
<title>onion&#45;architecture&#45;&gt;onion&#45;architecture/infrastructure/postgresql</title>
<path fill="none" stroke="white" d="M89.38,-410.18C89.38,-397.88 89.38,-382.63 89.38,-368.97"/>
<polygon fill="white" stroke="white" points="92.88,-369.01 89.38,-359.01 85.88,-369.01 92.88,-369.01"/>
<text text-anchor="middle" x="104.38" y="-378.7" font-family="Times,serif" font-size="14.00" fill="white">dep:3</text>
<polyline fill="none" stroke="white" points="119.38,-375.5 89.38,-375.5 89.38,-384.1"/>
</g>
<!-- onion&#45;architecture/presentation -->
<g id="node5" class="node">
<title>onion&#45;architecture/presentation</title>
<polygon fill="#3288bd" stroke="#e6f598" points="252,-308 252,-357 364.75,-357 364.75,-308 252,-308"/>
<text text-anchor="middle" x="308.38" y="-339.7" font-family="Times,serif" font-size="14.00" fill="#ffffbf">pkg: presentation</text>
<polyline fill="none" stroke="#e6f598" points="252,-332.5 364.75,-332.5"/>
<text text-anchor="middle" x="308.38" y="-315.2" font-family="Times,serif" font-size="14.00" fill="#ffffbf">path: presentation</text>
</g>
<!-- onion&#45;architecture&#45;&gt;onion&#45;architecture/presentation -->
<g id="edge4" class="edge">
<title>onion&#45;architecture&#45;&gt;onion&#45;architecture/presentation</title>
<path fill="none" stroke="white" d="M125.54,-417.4C158.21,-402.41 207.02,-380.01 245.98,-362.13"/>
<polygon fill="white" stroke="white" points="247.17,-365.44 254.8,-358.09 244.25,-359.08 247.17,-365.44"/>
<text text-anchor="middle" x="226.38" y="-378.7" font-family="Times,serif" font-size="14.00" fill="white">dep:1</text>
<polyline fill="none" stroke="white" points="241.38,-375.5 211.38,-375.5 221.73,-373.26"/>
</g>
<!-- onion&#45;architecture/presentation&#45;&gt;onion&#45;architecture/domain -->
<g id="edge7" class="edge">
<title>onion&#45;architecture/presentation&#45;&gt;onion&#45;architecture/domain</title>
<path fill="none" stroke="white" d="M365.12,-313.5C430.64,-289.11 534.3,-238.44 572.38,-152.5 581.38,-132.18 585.16,-120.68 572.38,-102.5 537.04,-52.26 465.43,-34.85 415.03,-28.91"/>
<polygon fill="white" stroke="white" points="415.48,-25.44 405.17,-27.88 414.75,-32.4 415.48,-25.44"/>
<text text-anchor="middle" x="576.38" y="-173.7" font-family="Times,serif" font-size="14.00" fill="white">dep:1</text>
<polyline fill="none" stroke="white" points="591.38,-170.5 561.38,-170.5 572.38,-152.49"/>
</g>
<!-- onion&#45;architecture/presentation&#45;&gt;onion&#45;architecture/repository -->
<g id="edge8" class="edge">
<title>onion&#45;architecture/presentation&#45;&gt;onion&#45;architecture/repository</title>
<path fill="none" stroke="white" d="M278.36,-307.73C260.08,-292.96 236.46,-273.36 216.38,-255 182.52,-224.05 145.7,-186.61 120.66,-160.53"/>
<polygon fill="white" stroke="white" points="123.45,-158.38 114.01,-153.58 118.39,-163.22 123.45,-158.38"/>
<text text-anchor="middle" x="231.38" y="-224.95" font-family="Times,serif" font-size="14.00" fill="white">dep:1</text>
<polyline fill="none" stroke="white" points="246.38,-221.75 216.38,-221.75 212,-250.98"/>
</g>
<!-- onion&#45;architecture/application -->
<g id="node6" class="node">
<title>onion&#45;architecture/application</title>
<polygon fill="#3288bd" stroke="#e6f598" points="255,-205.5 255,-254.5 361.75,-254.5 361.75,-205.5 255,-205.5"/>
<text text-anchor="middle" x="308.38" y="-237.2" font-family="Times,serif" font-size="14.00" fill="#ffffbf">pkg: application</text>
<polyline fill="none" stroke="#e6f598" points="255,-230 361.75,-230"/>
<text text-anchor="middle" x="308.38" y="-212.7" font-family="Times,serif" font-size="14.00" fill="#ffffbf">path: application</text>
</g>
<!-- onion&#45;architecture/presentation&#45;&gt;onion&#45;architecture/application -->
<g id="edge5" class="edge">
<title>onion&#45;architecture/presentation&#45;&gt;onion&#45;architecture/application</title>
<path fill="none" stroke="white" d="M308.38,-307.68C308.38,-295.38 308.38,-280.13 308.38,-266.47"/>
<polygon fill="white" stroke="white" points="311.88,-266.51 308.38,-256.51 304.88,-266.51 311.88,-266.51"/>
<text text-anchor="middle" x="323.38" y="-276.2" font-family="Times,serif" font-size="14.00" fill="white">dep:1</text>
<polyline fill="none" stroke="white" points="338.38,-273 308.38,-273 308.38,-281.6"/>
</g>
<!-- onion&#45;architecture/presentation/request -->
<g id="node7" class="node">
<title>onion&#45;architecture/presentation/request</title>
<polygon fill="#3288bd" stroke="#e6f598" points="407.62,-103 407.62,-152 563.12,-152 563.12,-103 407.62,-103"/>
<text text-anchor="middle" x="485.38" y="-134.7" font-family="Times,serif" font-size="14.00" fill="#ffffbf">pkg: request</text>
<polyline fill="none" stroke="#e6f598" points="407.62,-127.5 563.12,-127.5"/>
<text text-anchor="middle" x="485.38" y="-110.2" font-family="Times,serif" font-size="14.00" fill="#ffffbf">path: presentation/request</text>
</g>
<!-- onion&#45;architecture/presentation&#45;&gt;onion&#45;architecture/presentation/request -->
<g id="edge6" class="edge">
<title>onion&#45;architecture/presentation&#45;&gt;onion&#45;architecture/presentation/request</title>
<path fill="none" stroke="white" d="M331.72,-307.62C358.9,-279.49 404.72,-231.02 441.38,-187 448.11,-178.91 455.09,-169.93 461.46,-161.49"/>
<polygon fill="white" stroke="white" points="464.27,-163.58 467.43,-153.47 458.65,-159.4 464.27,-163.58"/>
<text text-anchor="middle" x="440.38" y="-224.95" font-family="Times,serif" font-size="14.00" fill="white">dep:1</text>
<polyline fill="none" stroke="white" points="455.38,-221.75 425.38,-221.75 419.74,-212.33"/>
</g>
<!-- onion&#45;architecture/application&#45;&gt;onion&#45;architecture/domain -->
<g id="edge13" class="edge">
<title>onion&#45;architecture/application&#45;&gt;onion&#45;architecture/domain</title>
<path fill="none" stroke="white" d="M316.52,-205.05C321.47,-190.05 327.7,-170.27 332.38,-152.5 340.45,-121.8 347.84,-86.44 352.84,-60.92"/>
<polygon fill="white" stroke="white" points="356.21,-61.91 354.67,-51.42 349.34,-60.58 356.21,-61.91"/>
<text text-anchor="middle" x="358.38" y="-122.45" font-family="Times,serif" font-size="14.00" fill="white">dep:2</text>
<polyline fill="none" stroke="white" points="373.38,-119.25 343.38,-119.25 339.6,-123.17"/>
</g>
<!-- onion&#45;architecture/application&#45;&gt;onion&#45;architecture/repository -->
<g id="edge10" class="edge">
<title>onion&#45;architecture/application&#45;&gt;onion&#45;architecture/repository</title>
<path fill="none" stroke="white" d="M256.44,-205.06C225.07,-190.6 184.93,-172.09 151.97,-156.9"/>
<polygon fill="white" stroke="white" points="153.46,-153.73 142.91,-152.72 150.53,-160.09 153.46,-153.73"/>
<text text-anchor="middle" x="227.38" y="-173.7" font-family="Times,serif" font-size="14.00" fill="white">dep:1</text>
<polyline fill="none" stroke="white" points="242.38,-170.5 212.38,-170.5 222.46,-189.39"/>
</g>
<!-- onion&#45;architecture/application&#45;&gt;onion&#45;architecture/presentation/request -->
<g id="edge12" class="edge">
<title>onion&#45;architecture/application&#45;&gt;onion&#45;architecture/presentation/request</title>
<path fill="none" stroke="white" d="M350.32,-205.18C375.16,-191.08 406.84,-173.09 433.27,-158.09"/>
<polygon fill="white" stroke="white" points="434.83,-161.22 441.8,-153.24 431.38,-155.14 434.83,-161.22"/>
<text text-anchor="middle" x="422.38" y="-173.7" font-family="Times,serif" font-size="14.00" fill="white">dep:1</text>
<polyline fill="none" stroke="white" points="437.38,-170.5 407.38,-170.5 415.95,-167.92"/>
</g>
<!-- onion&#45;architecture/presentation/response -->
<g id="node8" class="node">
<title>onion&#45;architecture/presentation/response</title>
<polygon fill="#3288bd" stroke="#e6f598" points="159.5,-103 159.5,-152 323.25,-152 323.25,-103 159.5,-103"/>
<text text-anchor="middle" x="241.38" y="-134.7" font-family="Times,serif" font-size="14.00" fill="#ffffbf">pkg: response</text>
<polyline fill="none" stroke="#e6f598" points="159.5,-127.5 323.25,-127.5"/>
<text text-anchor="middle" x="241.38" y="-110.2" font-family="Times,serif" font-size="14.00" fill="#ffffbf">path: presentation/response</text>
</g>
<!-- onion&#45;architecture/application&#45;&gt;onion&#45;architecture/presentation/response -->
<g id="edge11" class="edge">
<title>onion&#45;architecture/application&#45;&gt;onion&#45;architecture/presentation/response</title>
<path fill="none" stroke="white" d="M292.5,-205.18C283.88,-192.26 273.09,-176.08 263.65,-161.91"/>
<polygon fill="white" stroke="white" points="266.67,-160.13 258.21,-153.75 260.85,-164.02 266.67,-160.13"/>
<text text-anchor="middle" x="293.38" y="-173.7" font-family="Times,serif" font-size="14.00" fill="white">dep:2</text>
<polyline fill="none" stroke="white" points="308.38,-170.5 278.38,-170.5 280.7,-187.48"/>
</g>
</g>
</svg>
