<?xml version="1.0" encoding="UTF-8" standalone="no"?>
<!DOCTYPE svg PUBLIC "-//W3C//DTD SVG 1.1//EN"
 "http://www.w3.org/Graphics/SVG/1.1/DTD/svg11.dtd">
<!-- Generated by graphviz version 11.0.0 (20240428.1522)
 -->
<!-- Title: d Pages: 1 -->
<svg width="424pt" height="569pt"
 viewBox="36.00 36.00 388.38 533.00" xmlns="http://www.w3.org/2000/svg" xmlns:xlink="http://www.w3.org/1999/xlink">
<g id="graph0" class="graph" transform="scale(1 1) rotate(0) translate(40 529)">
<title>d</title>
<polygon fill="#343434" stroke="none" points="-4,4 -4,-493 348.38,-493 348.38,4 -4,4"/>
<text text-anchor="middle" x="172.19" y="-467.9" font-family="Times,serif" font-size="18.00" fill="white">package relation</text>
<!-- onion&#45;architecture/infrastructure/postgresql -->
<g id="node1" class="node">
<title>onion&#45;architecture/infrastructure/postgresql</title>
<polygon fill="#3288bd" stroke="#e6f598" points="0,-308 0,-357 178.75,-357 178.75,-308 0,-308"/>
<text text-anchor="middle" x="89.38" y="-339.7" font-family="Times,serif" font-size="14.00" fill="#ffffbf">pkg: postgresql</text>
<polyline fill="none" stroke="#e6f598" points="0,-332.5 178.75,-332.5"/>
<text text-anchor="middle" x="89.38" y="-315.2" font-family="Times,serif" font-size="14.00" fill="#ffffbf">path: infrastructure/postgresql</text>
</g>
<!-- onion&#45;architecture/repository -->
<g id="node2" class="node">
<title>onion&#45;architecture/repository</title>
<polygon fill="#3288bd" stroke="#e6f598" points="107.62,-103 107.62,-152 209.12,-152 209.12,-103 107.62,-103"/>
<text text-anchor="middle" x="158.38" y="-134.7" font-family="Times,serif" font-size="14.00" fill="#ffffbf">pkg: repository</text>
<polyline fill="none" stroke="#e6f598" points="107.62,-127.5 209.12,-127.5"/>
<text text-anchor="middle" x="158.38" y="-110.2" font-family="Times,serif" font-size="14.00" fill="#ffffbf">path: repository</text>
</g>
<!-- onion&#45;architecture/infrastructure/postgresql&#45;&gt;onion&#45;architecture/repository -->
<g id="edge1" class="edge">
<title>onion&#45;architecture/infrastructure/postgresql&#45;&gt;onion&#45;architecture/repository</title>
<path fill="none" stroke="white" d="M88.47,-307.81C88.26,-281.75 90.3,-239.03 103.38,-205 109.37,-189.4 119.34,-174.06 129.16,-161.26"/>
<polygon fill="white" stroke="white" points="131.77,-163.6 135.28,-153.61 126.3,-159.23 131.77,-163.6"/>
<text text-anchor="middle" x="118.38" y="-224.95" font-family="Times,serif" font-size="14.00" fill="white">dep:1</text>
<polyline fill="none" stroke="white" points="133.38,-221.75 103.38,-221.75 103.38,-204.99"/>
</g>
<!-- onion&#45;architecture/domain -->
<g id="node3" class="node">
<title>onion&#45;architecture/domain</title>
<polygon fill="#3288bd" stroke="#e6f598" points="181.38,-0.5 181.38,-49.5 269.38,-49.5 269.38,-0.5 181.38,-0.5"/>
<text text-anchor="middle" x="225.38" y="-32.2" font-family="Times,serif" font-size="14.00" fill="#ffffbf">pkg: domain</text>
<polyline fill="none" stroke="#e6f598" points="181.38,-25 269.38,-25"/>
<text text-anchor="middle" x="225.38" y="-7.7" font-family="Times,serif" font-size="14.00" fill="#ffffbf">path: domain</text>
</g>
<!-- onion&#45;architecture/infrastructure/postgresql&#45;&gt;onion&#45;architecture/domain -->
<g id="edge2" class="edge">
<title>onion&#45;architecture/infrastructure/postgresql&#45;&gt;onion&#45;architecture/domain</title>
<path fill="none" stroke="white" d="M82.22,-307.76C70.17,-262.58 51.45,-163.29 98.38,-102.5 116.97,-78.41 145.47,-60.26 170.76,-47.69"/>
<polygon fill="white" stroke="white" points="172.11,-50.93 179.64,-43.47 169.1,-44.61 172.11,-50.93"/>
<text text-anchor="middle" x="86.38" y="-173.7" font-family="Times,serif" font-size="14.00" fill="white">dep:1</text>
<polyline fill="none" stroke="white" points="101.38,-170.5 71.38,-170.5 70.14,-176.42"/>
</g>
<!-- onion&#45;architecture/repository&#45;&gt;onion&#45;architecture/domain -->
<g id="edge8" class="edge">
<title>onion&#45;architecture/repository&#45;&gt;onion&#45;architecture/domain</title>
<path fill="none" stroke="white" d="M174.25,-102.68C182.87,-89.76 193.66,-73.58 203.1,-59.41"/>
<polygon fill="white" stroke="white" points="205.9,-61.52 208.54,-51.25 200.08,-57.63 205.9,-61.52"/>
<text text-anchor="middle" x="210.38" y="-71.2" font-family="Times,serif" font-size="14.00" fill="white">dep:1</text>
<polyline fill="none" stroke="white" points="225.38,-68 195.38,-68 197.44,-67.9"/>
</g>
<!-- onion&#45;architecture -->
<g id="node4" class="node">
<title>onion&#45;architecture</title>
<polygon fill="#3288bd" stroke="#e6f598" points="53.62,-410.5 53.62,-459.5 125.12,-459.5 125.12,-410.5 53.62,-410.5"/>
<text text-anchor="middle" x="89.38" y="-442.2" font-family="Times,serif" font-size="14.00" fill="#ffffbf">pkg: main</text>
<polyline fill="none" stroke="#e6f598" points="53.62,-435 125.12,-435"/>
<text text-anchor="middle" x="89.38" y="-417.7" font-family="Times,serif" font-size="14.00" fill="#ffffbf">path: .</text>
</g>
<!-- onion&#45;architecture&#45;&gt;onion&#45;architecture/infrastructure/postgresql -->
<g id="edge3" class="edge">
<title>onion&#45;architecture&#45;&gt;onion&#45;architecture/infrastructure/postgresql</title>
<path fill="none" stroke="white" d="M89.38,-410.18C89.38,-397.88 89.38,-382.63 89.38,-368.97"/>
<polygon fill="white" stroke="white" points="92.88,-369.01 89.38,-359.01 85.88,-369.01 92.88,-369.01"/>
<text text-anchor="middle" x="104.38" y="-378.7" font-family="Times,serif" font-size="14.00" fill="white">dep:3</text>
<polyline fill="none" stroke="white" points="119.38,-375.5 89.38,-375.5 89.38,-384.1"/>
</g>
<!-- onion&#45;architecture/presentation -->
<g id="node5" class="node">
<title>onion&#45;architecture/presentation</title>
<polygon fill="#3288bd" stroke="#e6f598" points="198,-308 198,-357 310.75,-357 310.75,-308 198,-308"/>
<text text-anchor="middle" x="254.38" y="-339.7" font-family="Times,serif" font-size="14.00" fill="#ffffbf">pkg: presentation</text>
<polyline fill="none" stroke="#e6f598" points="198,-332.5 310.75,-332.5"/>
<text text-anchor="middle" x="254.38" y="-315.2" font-family="Times,serif" font-size="14.00" fill="#ffffbf">path: presentation</text>
</g>
<!-- onion&#45;architecture&#45;&gt;onion&#45;architecture/presentation -->
<g id="edge4" class="edge">
<title>onion&#45;architecture&#45;&gt;onion&#45;architecture/presentation</title>
<path fill="none" stroke="white" d="M125.58,-411.94C149.05,-397.65 179.91,-378.85 205.54,-363.25"/>
<polygon fill="white" stroke="white" points="207.07,-366.41 213.79,-358.22 203.42,-360.44 207.07,-366.41"/>
<text text-anchor="middle" x="196.38" y="-378.7" font-family="Times,serif" font-size="14.00" fill="white">dep:1</text>
<polyline fill="none" stroke="white" points="211.38,-375.5 181.38,-375.5 190.02,-372.7"/>
</g>
<!-- onion&#45;architecture/presentation&#45;&gt;onion&#45;architecture/repository -->
<g id="edge7" class="edge">
<title>onion&#45;architecture/presentation&#45;&gt;onion&#45;architecture/repository</title>
<path fill="none" stroke="white" d="M213.42,-307.71C195,-294.67 175.05,-276.72 164.38,-255 150.41,-226.6 150.26,-190.14 152.79,-163.66"/>
<polygon fill="white" stroke="white" points="156.27,-164.11 153.94,-153.77 149.31,-163.3 156.27,-164.11"/>
<text text-anchor="middle" x="179.38" y="-224.95" font-family="Times,serif" font-size="14.00" fill="white">dep:1</text>
<polyline fill="none" stroke="white" points="194.38,-221.75 164.38,-221.75 157.28,-236.12"/>
</g>
<!-- onion&#45;architecture/presentation&#45;&gt;onion&#45;architecture/domain -->
<g id="edge6" class="edge">
<title>onion&#45;architecture/presentation&#45;&gt;onion&#45;architecture/domain</title>
<path fill="none" stroke="white" d="M282.03,-307.56C295.8,-293.76 311.05,-275.18 318.38,-255 325.96,-234.11 322.49,-226.84 318.38,-205 309.33,-156.94 301.35,-145.67 278.38,-102.5 270.44,-87.58 260.14,-72.08 250.73,-58.96"/>
<polygon fill="white" stroke="white" points="253.71,-57.1 244.98,-51.1 248.06,-61.24 253.71,-57.1"/>
<text text-anchor="middle" x="329.38" y="-173.7" font-family="Times,serif" font-size="14.00" fill="white">dep:1</text>
<polyline fill="none" stroke="white" points="344.38,-170.5 314.38,-170.5 313.62,-182.69"/>
</g>
<!-- onion&#45;architecture/application -->
<g id="node6" class="node">
<title>onion&#45;architecture/application</title>
<polygon fill="#3288bd" stroke="#e6f598" points="203,-205.5 203,-254.5 309.75,-254.5 309.75,-205.5 203,-205.5"/>
<text text-anchor="middle" x="256.38" y="-237.2" font-family="Times,serif" font-size="14.00" fill="#ffffbf">pkg: application</text>
<polyline fill="none" stroke="#e6f598" points="203,-230 309.75,-230"/>
<text text-anchor="middle" x="256.38" y="-212.7" font-family="Times,serif" font-size="14.00" fill="#ffffbf">path: application</text>
</g>
<!-- onion&#45;architecture/presentation&#45;&gt;onion&#45;architecture/application -->
<g id="edge5" class="edge">
<title>onion&#45;architecture/presentation&#45;&gt;onion&#45;architecture/application</title>
<path fill="none" stroke="white" d="M254.85,-307.68C255.09,-295.38 255.4,-280.13 255.67,-266.47"/>
<polygon fill="white" stroke="white" points="259.17,-266.58 255.87,-256.51 252.17,-266.44 259.17,-266.58"/>
<text text-anchor="middle" x="270.38" y="-276.2" font-family="Times,serif" font-size="14.00" fill="white">dep:1</text>
<polyline fill="none" stroke="white" points="285.38,-273 255.38,-273 255.38,-280.93"/>
</g>
<!-- onion&#45;architecture/application&#45;&gt;onion&#45;architecture/repository -->
<g id="edge10" class="edge">
<title>onion&#45;architecture/application&#45;&gt;onion&#45;architecture/repository</title>
<path fill="none" stroke="white" d="M227.58,-205.01C221.1,-199.28 214.37,-193.06 208.38,-187 200.36,-178.89 192.13,-169.68 184.72,-161.02"/>
<polygon fill="white" stroke="white" points="187.43,-158.8 178.32,-153.4 182.08,-163.31 187.43,-158.8"/>
<text text-anchor="middle" x="223.38" y="-173.7" font-family="Times,serif" font-size="14.00" fill="white">dep:1</text>
<polyline fill="none" stroke="white" points="238.38,-170.5 208.38,-170.5 211.82,-190.42"/>
</g>
<!-- onion&#45;architecture/application&#45;&gt;onion&#45;architecture/domain -->
<g id="edge9" class="edge">
<title>onion&#45;architecture/application&#45;&gt;onion&#45;architecture/domain</title>
<path fill="none" stroke="white" d="M252.76,-205.32C247.32,-169.73 237.02,-102.26 230.72,-60.99"/>
<polygon fill="white" stroke="white" points="234.21,-60.7 229.25,-51.34 227.29,-61.76 234.21,-60.7"/>
<text text-anchor="middle" x="259.38" y="-122.45" font-family="Times,serif" font-size="14.00" fill="white">dep:1</text>
<polyline fill="none" stroke="white" points="274.38,-119.25 244.38,-119.25 241.26,-130.01"/>
</g>
</g>
</svg>
